<svg width="71" height="62" viewBox="0 0 71 62" fill="none" xmlns="http://www.w3.org/2000/svg">
<path d="M54.4356 29.646C54.9305 28.7696 54.9051 27.728 54.3626 26.8738L38.7188 1.65121C38.1001 0.635051 36.9549 -6.20212e-06 35.7303 -6.20212e-06C34.5025 -6.20212e-06 33.3667 0.635091 32.7481 1.64169L17.0889 26.8675C16.5527 27.7281 16.5273 28.7696 17.0159 29.6398C17.5203 30.5416 18.4784 31.1037 19.5253 31.1037H24.2428V59.1485C24.2428 60.7172 25.5499 61.9937 27.1679 61.9937H44.2866C45.8951 61.9937 47.2117 60.7172 47.2117 59.1485L47.2148 31.1094H51.9323C52.9793 31.1094 53.9374 30.5569 54.4417 29.6455L54.4356 29.646ZM46.4187 29.5158C45.9713 29.5158 45.6224 29.8747 45.6224 30.3129V59.1552C45.6224 59.8474 45.0291 60.4063 44.2899 60.4063H27.1712C26.432 60.4063 25.8388 59.8443 25.8388 59.1552V30.3129C25.8388 29.8747 25.4898 29.5158 25.0425 29.5158H19.5287C19.0496 29.5158 18.634 29.2809 18.4088 28.8744C18.1962 28.4997 18.2153 28.071 18.4342 27.7027L34.1064 2.48005C34.4395 1.93386 35.0582 1.58453 35.7307 1.58453C36.4033 1.58453 37.0219 1.92749 37.355 2.48005L53.0208 27.7059C53.2397 28.0711 53.2555 28.5029 53.0462 28.8777C52.8273 29.2841 52.4053 29.5191 51.9263 29.5191H46.4124L46.4187 29.5158Z" fill="#A6FF48"/>
<path d="M12.2035 30.5123C11.8133 29.8709 11.0899 29.4644 10.319 29.4644C9.54812 29.4644 8.82482 29.8708 8.43458 30.5059L0.281318 43.7574C-0.0771767 44.3194 -0.093038 45.0085 0.233732 45.6023C0.566847 46.1866 1.19184 46.555 1.87389 46.555H3.95188L3.95191 60.1233C3.95191 61.1553 4.80532 62 5.8522 62H14.7957C15.8426 62 16.696 61.1553 16.696 60.1233L16.6959 46.555H18.7739C19.456 46.555 20.081 46.1898 20.4141 45.6023C20.7377 45.018 20.7218 44.3258 20.3729 43.7574L12.2033 30.5156L12.2035 30.5123ZM19.0243 44.8214C18.9989 44.869 18.926 44.9675 18.7737 44.9675H15.8994C15.4616 44.9675 15.1031 45.3263 15.1031 45.7645L15.1031 60.1295C15.1031 60.2915 14.9572 60.4153 14.7954 60.4153H5.85189C5.68057 60.4153 5.54416 60.2851 5.54416 60.1295L5.54412 45.7645C5.54412 45.3263 5.18563 44.9675 4.74783 44.9675H1.87352C1.71172 44.9675 1.6451 44.869 1.62289 44.8214C1.5753 44.7388 1.58165 44.6594 1.62289 44.5928L9.7924 31.3348C9.89709 31.1633 10.1001 31.0585 10.319 31.0585C10.5379 31.0585 10.741 31.1728 10.8457 31.3443L19.0152 44.5958C19.0628 44.6688 19.0723 44.7514 19.0152 44.8244L19.0243 44.8214Z" fill="#A6FF48"/>
<path d="M62.5572 30.5123C62.167 29.8709 61.4437 29.4644 60.6728 29.4644C59.9019 29.4644 59.1786 29.8708 58.7883 30.5059L50.6351 43.7574C50.2766 44.3194 50.2607 45.0085 50.5875 45.6023C50.9206 46.1866 51.5456 46.555 52.2276 46.555H54.3056L54.3057 60.1233C54.3057 61.1553 55.1591 62 56.206 62H65.1495C66.1964 62 67.0497 61.1553 67.0497 60.1233L67.0497 46.555H69.1277C69.8098 46.555 70.4348 46.1898 70.7679 45.6023C71.0915 45.018 71.0756 44.3258 70.7266 43.7574L62.5571 30.5156L62.5572 30.5123ZM69.3781 44.8214C69.3527 44.869 69.2797 44.9675 69.1275 44.9675H66.2531C65.8153 44.9675 65.4568 45.3263 65.4568 45.7645L65.4569 60.1295C65.4569 60.2915 65.3109 60.4153 65.1491 60.4153H56.2057C56.0343 60.4153 55.8979 60.2851 55.8979 60.1295L55.8979 45.7645C55.8979 45.3263 55.5394 44.9675 55.1016 44.9675H52.2273C52.0655 44.9675 51.9989 44.869 51.9767 44.8214C51.9291 44.7388 51.9354 44.6594 51.9767 44.5928L60.1462 31.3348C60.2509 31.1633 60.4539 31.0585 60.6728 31.0585C60.8917 31.0585 61.0947 31.1728 61.1994 31.3443L69.3689 44.5958C69.4165 44.6688 69.426 44.7514 69.3689 44.8244L69.3781 44.8214Z" fill="#A6FF48"/>
</svg>
