<svg width="72" height="72" viewBox="0 0 72 72" fill="none" xmlns="http://www.w3.org/2000/svg">
<path d="M65.3209 23.9996H53.3235V6.66667C53.3235 2.98667 50.3374 0 46.6581 0H6.66544C2.98612 0 0 2.98667 0 6.66667V30.6667C0 34.3467 2.98612 37.3334 6.66544 37.3334H9.33162V44.7867C9.33162 46.5601 10.7714 48.0001 12.5443 48.0001C13.3842 48.0001 14.2241 47.6534 14.8239 47.0534L18.6632 43.2134V54.6668C18.6632 58.3468 21.6494 61.3335 25.3287 61.3335H47.4447L57.1761 71.0666C57.7759 71.6666 58.6025 72 59.4557 72C61.2286 72 62.6684 70.56 62.6684 68.7867V61.3333H65.3346C69.0139 61.3333 72 58.3466 72 54.6666V30.6666C72 26.9866 69.0139 23.9999 65.3346 23.9999L65.3209 23.9996ZM12.9435 45.1725C12.6236 45.4925 11.997 45.2259 11.997 44.7859V35.9991C11.997 35.2657 11.3971 34.6658 10.6639 34.6658H6.66467C4.4651 34.6658 2.66541 32.8657 2.66541 30.6657V6.66572C2.66541 4.46574 4.4651 2.66571 6.66467 2.66571H46.6573C48.8569 2.66571 50.6566 4.46574 50.6566 6.66572V30.6657C50.6566 32.8657 48.8569 34.6658 46.6573 34.6658H23.9953C23.6353 34.6658 23.302 34.8124 23.0487 35.0524L12.9309 45.1721L12.9435 45.1725ZM69.3197 54.6659C69.3197 56.8659 67.5201 58.6659 65.3205 58.6659H61.3212C60.588 58.6659 59.9881 59.2659 59.9881 59.9992V68.786C59.9881 69.2393 59.3482 69.4793 59.0549 69.1727L48.9371 59.053C48.6838 58.7996 48.3505 58.6663 47.9906 58.6663H25.3285C23.1289 58.6663 21.3292 56.8663 21.3292 54.6663V40.5462L24.542 37.3329H46.658C50.3373 37.3329 53.3235 34.3462 53.3235 30.6662V26.6662H65.3208C67.5204 26.6662 69.3201 28.4662 69.3201 30.6662L69.3197 54.6659Z" fill="#A6FF48"/>
<path d="M11.9974 19.9992H41.3253C42.0585 19.9992 42.6584 19.3992 42.6584 18.6659C42.6584 17.9325 42.0585 17.3325 41.3253 17.3325H11.9974C11.2642 17.3325 10.6643 17.9325 10.6643 18.6659C10.6643 19.3992 11.2642 19.9992 11.9974 19.9992Z" fill="#A6FF48"/>
<path d="M11.9974 11.9991H41.3253C42.0585 11.9991 42.6584 11.3991 42.6584 10.6658C42.6584 9.93245 42.0585 9.33246 41.3253 9.33246H11.9974C11.2642 9.33246 10.6643 9.93245 10.6643 10.6658C10.6643 11.3991 11.2642 11.9991 11.9974 11.9991Z" fill="#A6FF48"/>
<path d="M29.328 26.6654C29.328 25.9321 28.7281 25.3321 27.9949 25.3321H11.9979C11.2647 25.3321 10.6648 25.9321 10.6648 26.6654C10.6648 27.3988 11.2647 27.9988 11.9979 27.9988H27.9949C28.7281 27.9988 29.328 27.3988 29.328 26.6654Z" fill="#A6FF48"/>
</svg>
