<svg width="84" height="84" viewBox="0 0 84 84" fill="none" xmlns="http://www.w3.org/2000/svg">
<path fill-rule="evenodd" clip-rule="evenodd" d="M41.665 13.5055C44.8212 13.5055 47.3798 10.9469 47.3798 7.79072C47.3798 4.63452 44.8212 2.07592 41.665 2.07592C38.5088 2.07592 35.9502 4.63452 35.9502 7.79072C35.9502 10.9469 38.5088 13.5055 41.665 13.5055ZM41.665 34.9665C45.3642 34.9665 48.3642 37.9665 48.3642 41.6657C48.3642 45.3649 45.3642 48.3649 41.665 48.3649C37.9658 48.3649 34.9658 45.3649 34.9658 41.6657C34.9658 37.9665 37.9658 34.9665 41.665 34.9665ZM44.9345 38.3962C42.0283 35.49 37.04 37.5564 37.04 41.6657C37.04 45.7751 42.0322 47.8415 44.9384 44.9352C46.7431 43.1305 46.7431 40.2009 44.9345 38.3962ZM20.8135 25.5482L29.8682 34.6029C33.7627 38.4974 33.7627 44.8329 29.8682 48.7279L20.8096 57.7865C18.0635 60.5326 13.3135 58.599 13.3135 54.681C13.3135 53.556 13.7432 52.431 14.5987 51.5755L23.6534 42.5169C24.1182 42.0521 24.1182 41.2825 23.6534 40.8177L14.5987 31.763C11.8526 29.0169 13.7901 24.2669 17.7042 24.2669C18.8331 24.263 19.958 24.6889 20.8135 25.5482ZM28.4033 36.0712L19.3447 27.0126C17.9033 25.5712 15.3877 26.5751 15.3877 28.6532C15.3877 29.247 15.6142 29.8407 16.0635 30.2938L25.1221 39.3524C26.3955 40.6258 26.3955 42.7079 25.1221 43.9852L16.0674 53.036C14.626 54.4774 15.6299 56.993 17.708 56.993C18.3017 56.993 18.8955 56.7665 19.3486 56.3172L28.4072 47.2625C31.4853 44.1766 31.4853 39.1528 28.4033 36.0712ZM13.5053 41.665C13.5053 38.5088 10.9467 35.9502 7.79048 35.9502C4.63428 35.9502 2.07568 38.5088 2.07568 41.665C2.07568 44.8212 4.63428 47.3798 7.79048 47.3798C10.9467 47.3798 13.5053 44.8212 13.5053 41.665ZM13.2983 36.1572C10.2553 33.1142 5.32555 33.1142 2.28225 36.1572C-0.76075 39.2002 -0.76075 44.1299 2.28225 47.1732C5.32525 50.2162 10.255 50.2162 13.2983 47.1732C16.3413 44.1302 16.3413 39.2005 13.2983 36.1572ZM25.5483 62.5162C24.6928 63.3717 24.263 64.4967 24.263 65.6217C24.263 69.5358 29.013 71.4772 31.7591 68.7272L40.8138 59.6725C41.2787 59.2077 42.0482 59.2077 42.513 59.6725L51.5677 68.7311C52.4232 69.5866 53.5482 70.0163 54.6732 70.0163C58.5951 70.0163 60.5248 65.2663 57.7787 62.5202L48.724 53.4616C44.8295 49.5671 38.494 49.5671 34.599 53.4616L25.5483 62.5162ZM36.0712 54.9264L27.0166 63.9811C25.5752 65.4225 26.579 67.9381 28.6571 67.9381C29.2509 67.9381 29.8447 67.7116 30.2978 67.2623L39.3524 58.2076C40.6258 56.9342 42.7118 56.9342 43.9852 58.2076L53.0438 67.2623C54.4852 68.7037 57.0008 67.6998 57.0008 65.6217C57.0008 65.028 56.7743 64.4342 56.3251 63.9811L47.2704 54.9264C44.1766 51.8444 39.153 51.8444 36.0712 54.9264ZM41.665 69.8244C44.8212 69.8244 47.3798 72.383 47.3798 75.5392C47.3798 78.6954 44.8212 81.254 41.665 81.254C38.5088 81.254 35.9502 78.6954 35.9502 75.5392C35.9502 72.383 38.5088 69.8244 41.665 69.8244ZM36.1572 70.0314C39.2002 66.9884 44.1299 66.9884 47.1732 70.0314C50.2162 73.0744 50.2162 78.0041 47.1732 81.0474C44.1302 84.0904 39.2005 84.0904 36.1572 81.0474C33.1142 78.0044 33.1142 73.0747 36.1572 70.0314ZM62.5163 57.7814L53.4615 48.7267C49.567 44.8322 49.567 38.4967 53.4615 34.6017L62.5201 25.5431C65.2662 22.797 70.0163 24.7307 70.0163 28.6487C70.0163 29.7737 69.5866 30.8987 68.731 31.7542L59.6763 40.8127C59.2115 41.2776 59.2115 42.0472 59.6763 42.512L68.731 51.5667C71.4771 54.3128 69.5396 59.0628 65.6255 59.0628C64.4966 59.0667 63.3718 58.6369 62.5163 57.7814ZM54.9264 47.2584C51.8444 44.1764 51.8444 39.153 54.9264 36.0675L63.985 27.0127C64.4343 26.5635 65.0319 26.337 65.6256 26.337C67.7037 26.337 68.7077 28.8526 67.2663 30.294L58.2076 39.3487C56.9342 40.6221 56.9342 42.7042 58.2076 43.9815L67.2663 53.0401C67.7155 53.4893 67.942 54.0831 67.942 54.6807C67.942 56.7588 65.4264 57.7627 63.985 56.3213L54.9264 47.2584ZM69.8244 41.6646C69.8244 44.8208 72.383 47.3794 75.5392 47.3794C78.6954 47.3794 81.2541 44.8208 81.2541 41.6646C81.2541 38.5085 78.6954 35.9498 75.5392 35.9498C72.383 35.9498 69.8244 38.5085 69.8244 41.6646ZM70.0315 47.1725C73.0745 50.2155 78.0042 50.2155 81.0475 47.1725C84.0905 44.1295 84.0905 39.1997 81.0475 36.1564C78.0045 33.1134 73.0748 33.1134 70.0315 36.1564C66.9885 39.1994 66.9885 44.1292 70.0315 47.1725ZM57.7815 20.8134L48.7229 29.8721C44.8284 33.7666 38.4929 33.7666 34.5979 29.8721L25.5432 20.8134C22.7971 18.0673 24.7307 13.3174 28.6487 13.3174C29.7737 13.3174 30.8987 13.747 31.7542 14.6026L40.8089 23.6611C41.2737 24.126 42.0433 24.126 42.5081 23.6611L51.5628 14.6026C54.3089 11.8565 59.0589 13.794 59.0589 17.708C59.0667 18.833 58.6408 19.9579 57.7815 20.8134ZM47.2585 28.4032L56.3132 19.3485C57.7546 17.9071 56.7507 15.3916 54.6726 15.3916C54.0788 15.3916 53.4851 15.6181 53.032 16.0673L43.9773 25.122C42.7039 26.3954 40.6218 26.3954 39.3445 25.122L30.2859 16.0673C28.8445 14.6259 26.3289 15.6298 26.3289 17.7079C26.3289 18.3017 26.5554 18.8954 27.0047 19.3485L36.0594 28.4032C39.1532 31.4852 44.1767 31.4852 47.2585 28.4032ZM47.1725 13.2983C44.1295 16.3413 39.1998 16.3413 36.1565 13.2983C33.1135 10.2553 33.1135 5.32555 36.1565 2.28225C39.1995 -0.76075 44.1292 -0.76075 47.1725 2.28225C50.2155 5.32135 50.2155 10.255 47.1725 13.2983Z" fill="#A6FF48"/>
</svg>
