<svg width="83" height="81" viewBox="0 0 83 81" fill="none" xmlns="http://www.w3.org/2000/svg">
<path d="M80.3057 73.6938H78.4379V20.107C78.4379 19.324 77.941 18.6499 77.1304 18.3445L58.6532 11.3684V7.43966H58.9598C60.4224 7.43966 61.6136 6.23546 61.6136 4.7538V2.68586C61.6136 1.20429 60.4224 0 58.9598 0L24.0525 0.00351048C22.59 0.00351048 21.3988 1.20771 21.3988 2.68937V4.75731C21.3988 6.23888 22.59 7.44317 24.0525 7.44317H24.3591V11.3894L5.88194 18.3445C5.07842 18.65 4.57446 19.324 4.57446 20.107V73.6938H2.69607C1.20887 73.6938 0 74.898 0 76.3832V78.3141C0 79.7957 1.20878 81 2.69607 81H80.3039C81.7911 81 83 79.7958 83 78.3141V76.3832C83.0035 74.8981 81.7947 73.6938 80.3074 73.6938L80.3057 73.6938ZM76.4079 20.2337V73.6938H58.6525V13.5278L76.4079 20.2337ZM46.5332 73.6938H36.4681V58.1438H46.5368L46.5332 73.6938ZM47.5446 56.1215H35.4568C34.8965 56.1215 34.4454 56.5709 34.4454 57.1292V73.6939H26.3784V48.4298H56.6303V73.6939H48.5633V57.1292C48.5633 56.5815 48.105 56.1215 47.5446 56.1215ZM26.3779 28.108H56.6298V35.8004H26.3779V28.108ZM26.3779 37.823H35.111V46.4072H26.3779V37.823ZM37.1341 37.823H45.8671V46.4072H37.1341V37.823ZM47.8866 37.823H56.6197V46.4072H47.8866V37.823ZM56.6232 26.0929H47.8901V17.5087H56.6232V26.0929ZM45.8671 26.0929H37.134V17.5087H45.8671V26.0929ZM35.1146 26.0929H26.3815V17.5087H35.1146V26.0929ZM23.421 4.75739V2.68945C23.421 2.32081 23.6995 2.01536 24.0448 2.01536H58.9521C59.294 2.01536 59.5759 2.32081 59.5759 2.68945V4.75739C59.5759 5.12604 59.2975 5.43149 58.9521 5.43149H24.0512C23.6987 5.43149 23.421 5.12604 23.421 4.75739ZM56.6232 7.44325V15.4867L26.3785 15.4902V7.44676L56.6232 7.44325ZM6.59308 20.2331L24.3485 13.5448V73.6937H6.59308V20.2331ZM80.9828 78.3139C80.9828 78.6825 80.6762 78.988 80.3061 78.988H2.69554C2.32549 78.988 2.01889 78.6825 2.01889 78.3139V76.3829C2.01889 76.0143 2.32549 75.7088 2.69554 75.7088H80.3034C80.6734 75.7088 80.9801 76.0143 80.9801 76.3829L80.9828 78.3139ZM17.8634 23.1011H13.081C12.0625 23.1011 11.2237 23.9297 11.2237 24.9514V29.7157C11.2237 30.7303 12.0555 31.5659 13.081 31.5659H17.8634C18.8819 31.5659 19.7207 30.7373 19.7207 29.7157V24.9514C19.7207 23.9262 18.8925 23.1011 17.8634 23.1011ZM17.6908 29.5436H13.2431V25.1129H17.6908V29.5436ZM17.8634 39.9256H13.081C12.0625 39.9256 11.2237 40.7542 11.2237 41.7758V46.5401C11.2237 47.5548 12.0555 48.3904 13.081 48.3904H17.8634C18.8819 48.3904 19.7207 47.5618 19.7207 46.5401V41.7758C19.7207 40.7542 18.8925 39.9256 17.8634 39.9256ZM17.6908 46.3716H13.2431V41.9408H17.6908V46.3716ZM17.8634 56.7428H13.081C12.0625 56.7428 11.2237 57.5714 11.2237 58.593V63.3573C11.2237 64.372 12.0555 65.2076 13.081 65.2076H17.8634C18.8819 65.2076 19.7207 64.379 19.7207 63.3573V58.593C19.7207 57.5784 18.8925 56.7428 17.8634 56.7428ZM17.6908 63.1853H13.2431V58.7545H17.6908V63.1853ZM65.1378 31.5658H69.9203C70.9388 31.5658 71.7775 30.7373 71.7775 29.7156V24.9513C71.7775 23.9366 70.9458 23.101 69.9203 23.101H65.1378C64.1193 23.101 63.2805 23.9296 63.2805 24.9513V29.7156C63.2805 30.7302 64.1087 31.5658 65.1378 31.5658ZM65.3105 25.1128H69.7581V29.5435H65.3105V25.1128ZM65.1378 48.3834H69.9203C70.9388 48.3834 71.7775 47.5548 71.7775 46.5331V41.7688C71.7775 40.7542 70.9458 39.9186 69.9203 39.9186H65.1378C64.1193 39.9186 63.2805 40.7471 63.2805 41.7688V46.5331C63.2805 47.5583 64.1087 48.3834 65.1378 48.3834ZM65.3105 41.9408H69.7581V46.3716H65.3105V41.9408ZM65.1378 65.2079H69.9203C70.9388 65.2079 71.7775 64.3793 71.7775 63.3576V58.5933C71.7775 57.5787 70.9458 56.743 69.9203 56.743H65.1378C64.1193 56.743 63.2805 57.5716 63.2805 58.5933V63.3576C63.2805 64.3828 64.1087 65.2079 65.1378 65.2079ZM65.3105 58.7653H69.7581V63.1961H65.3105V58.7653Z" fill="#053D3D"/>
</svg>
