<svg width="41" height="61" viewBox="0 0 41 61" fill="none" xmlns="http://www.w3.org/2000/svg">
<path d="M20.5 0C26.161 0 31.2846 2.31718 34.9945 6.06792C38.7043 9.81623 41 14.9957 41 20.7132C41 25.2769 38.8753 29.6603 36.7579 34.0295C34.7994 38.0699 32.8458 42.1005 32.8458 45.9656V54.0316C32.8458 55.952 32.0701 57.6947 30.8247 58.9555C29.5769 60.2163 27.8521 61 25.9515 61H15.0485C13.1479 61 11.4231 60.2163 10.1753 58.9555C8.92749 57.6947 8.15423 55.952 8.15423 54.0316V45.9656C8.15423 42.1004 6.20057 38.0696 4.24211 34.0295C2.12466 29.6581 0 25.2743 0 20.7132C0 14.9934 2.29573 9.81648 6.00546 6.06792C9.71518 2.31718 14.8413 0 20.5 0ZM21.8466 8.92277L24.3398 16.7333L32.4745 16.7163C33.2526 16.7163 33.8838 17.354 33.8838 18.1402C33.8838 18.6148 33.6549 19.0335 33.3008 19.2939L33.3032 19.2963L26.7146 24.1132L29.244 31.9238C29.4848 32.6734 29.0802 33.4766 28.3382 33.7225C27.854 33.8807 27.3457 33.7614 26.9868 33.4523L20.4993 28.6719L13.9279 33.5155C13.2992 33.978 12.4175 33.8368 11.9622 33.204C11.6876 32.8218 11.6273 32.3448 11.7598 31.9261H11.755L14.2844 24.1156L7.69576 19.2987C7.06224 18.8363 6.9225 17.943 7.3802 17.3053C7.6789 16.8915 8.15586 16.6846 8.62799 16.7211L16.6591 16.7358L19.1571 8.91773C19.3956 8.16808 20.1906 7.75428 20.9325 7.99523C21.3854 8.14371 21.7154 8.49907 21.8455 8.92502L21.8466 8.92277ZM21.9719 18.5951L20.5 13.9901L19.0282 18.5951C18.8451 19.1696 18.3152 19.5833 17.684 19.5833L12.8927 19.5736L16.7735 22.4116C17.2552 22.7645 17.4817 23.4047 17.289 24.0083L15.7978 28.6134L19.6473 25.7753C20.1291 25.4054 20.8132 25.381 21.3263 25.7583L25.1974 28.6109L23.7232 24.0569C23.5112 23.4728 23.6967 22.7913 24.2218 22.4091L28.1026 19.5711L23.3787 19.5808C22.7572 19.6101 22.1695 19.2206 21.9719 18.5927L21.9719 18.5951ZM10.9147 44.5391H30.0874C30.4656 40.5474 32.3446 36.6675 34.2308 32.7806C36.1989 28.7159 38.1742 24.6436 38.1742 20.7155C38.1742 15.7843 36.1965 11.3205 32.9974 8.09031C29.8008 4.86042 25.3826 2.86214 20.5022 2.86214C15.6217 2.86214 11.2038 4.86042 8.00692 8.09031C4.81027 11.3202 2.83016 15.7868 2.83016 20.7155C2.83016 24.644 4.80306 28.7186 6.77355 32.7806C8.65733 36.6677 10.5363 40.545 10.9169 44.5391H10.9147ZM30.0177 47.399H10.9825V54.0338C10.9825 55.1656 11.4402 56.1902 12.175 56.935C12.9121 57.6798 13.9287 58.1398 15.0488 58.1398H25.9518C27.072 58.1398 28.0861 57.6774 28.8257 56.935C29.5628 56.1902 30.0181 55.1631 30.0181 54.0338L30.0177 47.399Z" fill="#A6FF48"/>
</svg>
