<svg width="72" height="77" viewBox="0 0 72 77" fill="none" xmlns="http://www.w3.org/2000/svg">
<path d="M30.65 29.9838C26.9392 28.1266 22.02 24.4244 18.8904 17.2039C15.758 24.4241 10.8418 28.126 7.13076 29.9838C10.8415 31.838 15.7607 35.5433 18.8904 42.7638C22.0228 35.5435 26.939 31.8385 30.65 29.9838ZM64.8659 20.1541C61.1551 18.2968 56.2359 14.5946 53.1063 7.37411C49.9739 14.5944 45.0577 18.2962 41.3467 20.1541C45.0574 22.0083 49.9766 25.7135 53.1063 32.934C56.2387 25.7138 61.1549 22.0087 64.8659 20.1541ZM54.8387 1.36371C58.583 16.1115 69.7365 18.2475 70.4644 18.3709C71.2163 18.4783 71.8494 19.0678 71.9773 19.8628C72.1326 20.8421 71.475 21.7692 70.5009 21.9288C70.4674 21.935 58.7109 23.7185 54.8448 38.9329C54.6896 39.5591 54.2086 40.0779 53.548 40.2468C52.5921 40.4924 51.618 39.906 51.3744 38.9421C47.6301 24.1943 36.4766 22.0582 35.7487 21.9349C34.9968 21.8274 34.3637 21.238 34.2358 20.443C34.0775 19.4637 34.7381 18.5366 35.7122 18.377C35.7457 18.3708 47.5022 16.5873 51.3683 1.37291C51.5235 0.746663 52.0015 0.227881 52.6621 0.0559307C53.618 -0.189656 54.5921 0.39668 54.8356 1.36065L54.8387 1.36371ZM51.9254 56.8483C48.2146 54.991 43.2986 51.2888 40.1658 44.0683C37.0334 51.2886 32.1172 54.9905 28.4062 56.8483C32.117 58.7056 37.0361 62.4078 40.1658 69.6283C43.2982 62.408 48.2144 58.7061 51.9254 56.8483ZM41.8982 38.0579C45.6425 52.8057 56.796 54.9418 57.5239 55.0651C58.2758 55.1726 58.9089 55.762 59.0368 56.5571C59.1951 57.5363 58.5345 58.4634 57.5604 58.623C57.527 58.6292 45.7704 60.4127 41.9043 75.6271C41.7491 76.2533 41.2681 76.7721 40.6075 76.9441C39.6516 77.1897 38.6775 76.6033 38.4339 75.6394C34.6896 60.8916 23.5361 58.7555 22.8082 58.6322C22.0563 58.5247 21.4232 57.9353 21.2953 57.1403C21.14 56.161 21.7976 55.2339 22.7717 55.0743C22.8052 55.0681 34.5617 53.2846 38.4278 38.0733C38.583 37.4471 39.061 36.9283 39.7216 36.7564C40.6775 36.5108 41.6516 37.0971 41.8951 38.0611L41.8982 38.0579ZM20.6225 11.1935C24.3668 25.9413 35.5204 28.0773 36.2482 28.2007C37.0001 28.3081 37.6333 28.8975 37.7612 29.6926C37.9195 30.6719 37.2589 31.599 36.2848 31.7586C36.2513 31.7647 24.4948 33.5483 20.6287 48.7626C20.4734 49.3889 19.9955 49.9077 19.3349 50.0796C18.379 50.3252 17.4049 49.7389 17.1613 48.7749C13.417 34.0271 2.26349 31.8911 1.53562 31.7677C0.783726 31.6602 0.150577 31.0708 0.0226936 30.2758C-0.132558 29.2965 0.524975 28.3694 1.49908 28.2098C1.53256 28.2036 13.2891 26.4201 17.1552 11.2057C17.3104 10.5795 17.7914 10.0607 18.452 9.88876C19.4079 9.64317 20.382 10.2295 20.6256 11.1935H20.6225Z" fill="#A6FF48"/>
</svg>
