<svg width="75" height="82" viewBox="0 0 75 82" fill="none" xmlns="http://www.w3.org/2000/svg">
<path d="M60.0088 28.5044C64.0322 28.5044 67.3096 25.231 67.3096 21.2075C67.3096 17.184 64.0362 13.9106 60.0088 13.9106C55.9854 13.9106 52.708 17.184 52.708 21.2075C52.708 25.231 55.9853 28.5044 60.0088 28.5044ZM60.0088 15.5744C63.1143 15.5744 65.6377 18.0978 65.6377 21.2033C65.6377 24.3088 63.1143 26.8322 60.0088 26.8322C56.9033 26.8322 54.3799 24.3088 54.3799 21.2033C54.3799 18.1017 56.9033 15.5744 60.0088 15.5744ZM74.5168 42.4924C74.009 39.0393 72.2785 35.8479 69.6379 33.5119C66.9738 31.1525 63.5598 29.8244 60.0207 29.7736H59.9973C56.4621 29.8283 53.0442 31.1564 50.3801 33.5119C47.7395 35.8478 46.0051 39.0392 45.5012 42.4924C45.259 44.1565 45.9426 45.719 47.3293 46.6682C48.0129 47.137 48.7824 47.5627 49.6145 47.9573C48.4895 48.2464 47.3957 48.1761 46.2825 47.7034L44.9427 47.1331C43.4505 46.4964 41.9622 46.3909 40.3958 46.8128L35.2513 48.1917C34.1615 48.4847 33.2669 48.9807 32.4505 49.7073C31.4036 49.4143 30.3528 49.2073 29.2435 49.0042C27.8294 48.7424 26.388 48.4768 24.8997 47.9808C25.7512 47.5823 26.5403 47.1448 27.2356 46.6683C28.6262 45.719 29.3098 44.1566 29.0637 42.4925C28.5559 39.0394 26.8254 35.848 24.1848 33.512C21.5207 31.1526 18.1067 29.8245 14.5676 29.7737H14.5441C11.0089 29.8284 7.59103 31.1565 4.92693 33.512C2.28633 35.8479 0.551929 39.0393 0.0480288 42.4925C-0.194161 44.1566 0.489439 45.7191 1.87613 46.6683C4.09493 48.1839 6.70813 49.0628 8.80583 49.5706L4.63003 56.805C3.63394 58.5316 4.22769 60.7425 5.95033 61.7386L8.94253 63.4652C9.50894 63.7894 10.1222 63.9456 10.7316 63.9456C11.7668 63.9456 12.7707 63.4925 13.466 62.68C14.5715 64.2464 15.5754 65.4456 16.6652 66.5238L16.384 67.0082C15.9035 67.8402 15.7785 68.809 16.0285 69.7387C16.2785 70.6684 16.8723 71.4457 17.7043 71.9262C18.2551 72.2465 18.8684 72.4067 19.4934 72.4067C19.7278 72.4067 19.9661 72.3754 20.2004 72.3286C20.1887 72.684 20.2122 73.0395 20.3059 73.3911C20.5559 74.3207 21.1497 75.0981 21.9817 75.5786C22.5481 75.9067 23.1653 76.059 23.7747 76.059C24.2083 76.059 24.638 75.977 25.0403 75.8247C25.0598 75.934 25.0677 76.0473 25.095 76.1567C25.345 77.0864 25.9387 77.8637 26.7708 78.3442C27.3216 78.6645 27.9349 78.8247 28.5599 78.8247C28.8724 78.8247 29.1888 78.7817 29.5013 78.6997C29.8568 78.6059 30.1771 78.4457 30.4818 78.2543C30.763 79.0825 31.3099 79.7816 32.0716 80.2191C32.638 80.5473 33.2552 80.6996 33.8646 80.6996C35.0052 80.6996 36.1146 80.1527 36.8021 79.1762L40.599 81.3676C41.1654 81.6957 41.7826 81.8481 42.392 81.8481C43.6381 81.8481 44.849 81.2036 45.517 80.0473C45.8959 79.391 46.0404 78.6606 45.9818 77.9535C47.5248 78.3793 49.2201 77.7308 50.056 76.2816C50.4349 75.6253 50.5834 74.8949 50.5209 74.1878C51.1302 74.3558 51.7787 74.3597 52.4076 74.1917C53.3372 73.9417 54.1146 73.3479 54.5951 72.5159C54.974 71.8596 55.1224 71.1292 55.0599 70.4221C55.6693 70.5901 56.3177 70.594 56.9466 70.426C57.8763 70.176 58.6536 69.5822 59.1341 68.7502C59.7943 67.6096 59.7396 66.2619 59.138 65.1877C59.7747 64.4533 60.4114 63.6408 61.095 62.6721C61.7903 63.4846 62.7942 63.9377 63.8294 63.9377C64.4388 63.9377 65.056 63.7814 65.6185 63.4572L68.6107 61.7306C70.3373 60.7345 70.9271 58.5197 69.931 56.797L65.7552 49.5626C67.8529 49.0548 70.4661 48.1759 72.6849 46.6603C74.0794 45.7189 74.7629 44.1565 74.5168 42.4924ZM35.6808 49.801L40.8253 48.4221C42.0362 48.0979 43.1339 48.176 44.2862 48.6682L45.63 49.2385C47.3175 49.9534 49.0441 49.9963 50.7628 49.3674C51.4776 49.1057 52.1456 48.7971 52.8058 48.4573L60.13 61.1413C59.3605 62.2624 58.6769 63.1686 57.9933 63.9655C57.9308 63.9264 57.88 63.8756 57.8175 63.8366L50.337 59.5202C52.2511 59.3131 53.4972 58.7194 53.5597 58.6881C53.9738 58.485 54.1418 57.985 53.9386 57.5709C53.7355 57.1569 53.2355 56.9889 52.8214 57.1881C52.5675 57.3131 46.5206 60.1451 40.5324 53.8951C40.3801 53.7389 40.1731 53.6451 39.9543 53.6373L36.7629 53.5396C36.5324 53.5318 36.3098 53.6217 36.1457 53.7857L33.9348 55.9966C33.0598 56.8716 32.0325 57.0122 31.3254 56.9771C30.3918 56.9302 29.6145 56.5552 29.2629 56.1998C28.9895 55.9263 28.9895 55.481 29.2629 55.2076L33.302 51.1685C33.9934 50.481 34.7277 50.0549 35.6808 49.801ZM2.8098 45.2893C1.94652 44.6995 1.5403 43.7698 1.6926 42.7346C2.62229 36.3948 8.1496 31.5436 14.5476 31.4416C20.9499 31.5432 26.4776 36.3986 27.4026 42.7346C27.5549 43.7698 27.1448 44.6994 26.2854 45.2893C25.2854 45.9729 24.0823 46.5705 22.7151 47.0823C22.6643 47.0589 22.6135 47.0276 22.5628 47.0003C23.3948 45.3167 22.801 43.2503 21.1526 42.3011L18.1604 40.5745C17.3283 40.094 16.3518 39.9651 15.4182 40.2151C14.4846 40.4651 13.7073 41.0628 13.2229 41.8948L9.66816 48.055C6.98066 47.4534 4.55876 46.4808 2.80876 45.2894L2.8098 45.2893ZM9.7746 62.0163L6.7824 60.2897C5.85662 59.7546 5.5363 58.5631 6.07146 57.6374L14.677 42.7314C14.9348 42.2822 15.3527 41.9619 15.8567 41.8291C16.0246 41.7822 16.1965 41.7627 16.3645 41.7627C16.7004 41.7627 17.0324 41.8486 17.3293 42.0205L20.3215 43.7471C21.2395 44.2783 21.5559 45.4541 21.0246 46.3721L12.3996 61.3131C11.8684 62.231 10.6926 62.5476 9.7746 62.0163ZM18.5324 70.4772C18.0871 70.2194 17.7707 69.8053 17.6379 69.3053C17.5051 68.8053 17.5715 68.2858 17.8293 67.8405L20.6066 63.0319C20.8644 62.5866 21.2785 62.2702 21.7785 62.1374C22.2785 62.0046 22.798 62.071 23.2433 62.3288C23.6886 62.5866 24.005 63.0007 24.1378 63.5007C24.2706 64.0007 24.2042 64.5202 23.9503 64.9655L21.173 69.7741C20.9152 70.2194 20.5011 70.5358 20.0011 70.6686C19.4972 70.8014 18.9778 70.735 18.5324 70.4772ZM22.8097 74.1295C22.3644 73.8717 22.048 73.4576 21.9152 72.9576C21.7824 72.4576 21.8488 71.9381 22.1066 71.4928L25.9074 64.9069C26.1652 64.4616 26.5793 64.1452 27.0793 64.0124C27.5793 63.8796 28.0988 63.946 28.5441 64.2038C28.9894 64.4616 29.3058 64.8757 29.4386 65.3757C29.5714 65.8757 29.505 66.3952 29.2511 66.8405L25.4503 73.4264C24.9152 74.3444 23.7315 74.6608 22.8097 74.1295ZM29.0636 77.0865C28.5636 77.2193 28.0441 77.1529 27.5988 76.899C27.1535 76.6412 26.8371 76.2271 26.7043 75.7271C26.5715 75.2271 26.6379 74.7076 26.8957 74.2623L31.2082 66.7896C31.466 66.3443 31.8801 66.0279 32.3801 65.8951C32.5481 65.8482 32.7199 65.8287 32.8879 65.8287C33.2199 65.8287 33.5481 65.9146 33.8449 66.0865C34.7668 66.6177 35.0832 67.8013 34.552 68.7232L30.2395 76.1959C29.9816 76.6334 29.5636 76.9498 29.0636 77.0865ZM32.9034 78.774C32.4581 78.5162 32.1417 78.1021 32.0089 77.6021C31.8761 77.1021 31.9425 76.5826 32.2003 76.1373L34.9776 71.3248C35.5088 70.4029 36.6924 70.0865 37.6143 70.6178C38.0596 70.8756 38.376 71.2897 38.5088 71.7897C38.6416 72.2897 38.5752 72.8092 38.3174 73.2545L35.5401 78.0631C35.0049 78.9889 33.8213 79.3053 32.9034 78.774ZM57.6844 67.922C57.4266 68.3673 57.0125 68.6837 56.5125 68.8165C56.0125 68.9494 55.493 68.8829 55.0477 68.629L48.286 64.7228C47.8876 64.4924 47.3758 64.6291 47.1454 65.0275C46.9149 65.426 47.0517 65.9377 47.4501 66.1681L52.4501 69.0548C52.4501 69.0548 52.454 69.0548 52.454 69.0587C53.3602 69.5939 53.6688 70.7735 53.1415 71.6837C52.8837 72.129 52.4696 72.4455 51.9696 72.5783C51.4696 72.7111 50.9501 72.6447 50.5048 72.3908L45.5165 69.5119C45.1181 69.2814 44.6063 69.4181 44.3759 69.8166C44.1454 70.215 44.2822 70.7267 44.6806 70.9572L47.9072 72.8205C47.9111 72.8205 47.9111 72.8244 47.915 72.8244C48.8213 73.3595 49.1298 74.5392 48.6025 75.4494C48.0713 76.3712 46.8877 76.6877 45.9658 76.1564L42.751 74.3009C42.3526 74.0704 41.8408 74.2072 41.6104 74.6056C41.3799 75.004 41.5167 75.5157 41.9151 75.7462L43.3682 76.586C43.3721 76.5899 43.376 76.5899 43.376 76.5938C44.2744 77.1329 44.583 78.3086 44.0596 79.2149C43.5283 80.1368 42.3448 80.4532 41.4229 79.922L37.6456 77.7423L39.7511 74.0939C40.2316 73.2658 40.3566 72.2931 40.1066 71.3634C39.8566 70.4337 39.2628 69.6564 38.4308 69.1759C37.7667 68.7931 37.0324 68.6524 36.3214 68.7149C36.4893 68.1016 36.5089 67.4571 36.3409 66.8243C36.0909 65.8946 35.4971 65.1173 34.6651 64.6368C33.8331 64.1564 32.8643 64.0314 31.9346 64.2814C31.5791 64.3751 31.2588 64.5353 30.9541 64.7267C30.6729 63.8985 30.126 63.1994 29.3643 62.7619C28.5323 62.2814 27.5635 62.1564 26.6338 62.4064C26.2784 62.5002 25.958 62.6603 25.6534 62.8517C25.3721 62.0236 24.8252 61.3244 24.0636 60.8869C23.2315 60.4064 22.2628 60.2814 21.3331 60.5314C20.4034 60.7814 19.6261 61.3752 19.1456 62.2072L17.5128 65.0353C16.4855 63.9806 15.5167 62.7619 14.4151 61.1525L21.7354 48.4725C24.3057 49.7967 26.7471 50.2577 28.919 50.6561C29.6455 50.789 30.3409 50.9296 31.0245 51.0858L28.0675 54.0428C27.1417 54.9686 27.1417 56.4725 28.0675 57.3983C28.7862 58.1171 29.9972 58.6014 31.2277 58.66C32.7082 58.7343 34.0832 58.2108 35.0988 57.1912L37.0558 55.2342L39.548 55.3084C42.048 57.8279 44.5792 58.9295 46.6925 59.3592C46.6964 59.3632 46.7003 59.3671 46.7081 59.371L56.9621 65.2929C57.8996 65.8163 58.2156 67.0001 57.6844 67.922ZM67.7784 60.2892L64.7862 62.0158C63.8682 62.5471 62.6885 62.2307 62.1612 61.3127L53.5362 46.3747C53.005 45.4567 53.3214 44.277 54.2393 43.7497L57.2315 42.0231C57.5362 41.8473 57.8683 41.7653 58.2003 41.7653C58.8722 41.7653 59.5245 42.1129 59.8839 42.734L68.4894 57.64C69.0245 58.5619 68.7042 59.7541 67.7784 60.2892ZM71.7472 45.2892C69.9972 46.4845 67.5753 47.4533 64.8839 48.0548L61.3292 41.8946C60.8487 41.0626 60.0675 40.4649 59.1339 40.2149C58.2003 39.9649 57.2277 40.0938 56.3917 40.5743L53.3995 42.3009C51.7511 43.2501 51.1573 45.3165 51.9893 46.9962C51.9346 47.0235 51.8838 47.0509 51.8291 47.0782C50.4697 46.5665 49.2666 45.9688 48.2666 45.2852C47.4034 44.6954 46.9971 43.7657 47.1494 42.7305C48.0791 36.3907 53.6064 31.5395 60.0044 31.4375C66.4067 31.5391 71.9344 36.3945 72.8594 42.7305C73.0157 43.7657 72.6094 44.6993 71.7461 45.2891L71.7472 45.2892ZM14.5482 28.5042C18.5716 28.5042 21.849 25.2308 21.849 21.2073C21.849 17.1838 18.5756 13.9104 14.5482 13.9104C10.5248 13.9104 7.2474 17.1838 7.2474 21.2073C7.25131 25.2307 10.5247 28.5042 14.5482 28.5042ZM14.5482 15.5742C17.6537 15.5742 20.1771 18.0976 20.1771 21.2031C20.1771 24.3086 17.6537 26.832 14.5482 26.832C11.4427 26.832 8.9193 24.3086 8.9193 21.2031C8.9193 18.1015 11.4466 15.5742 14.5482 15.5742ZM25.2202 14.9062V16.875C25.2202 17.4922 25.5679 18.0391 26.1265 18.3047C26.3452 18.4063 26.5757 18.4571 26.8061 18.4571C27.1616 18.4571 27.5171 18.336 27.8061 18.0938L28.7827 17.293C29.4272 17.8633 30.2554 18.1915 31.1382 18.1915H41.1582L44.916 21.2813C45.2051 21.5195 45.5566 21.6445 45.916 21.6445C46.1465 21.6445 46.3769 21.5938 46.5957 21.4922C47.1543 21.2266 47.5019 20.6797 47.5019 20.0625V18.0937C49.0605 17.7187 50.2207 16.3125 50.2207 14.6406V6.74221C50.2207 4.78521 48.6269 3.19141 46.6699 3.19141H45.1074C44.9239 1.40621 43.4277 0.00390625 41.5918 0.00390625L26.0568 0C24.0998 0 22.506 1.5938 22.506 3.5508V11.4492C22.506 13.125 23.6616 14.5273 25.2202 14.9062ZM45.1382 11.4531V4.86335H46.6616C47.7007 4.86335 48.5444 5.7071 48.5444 6.74615V14.6445C48.5444 15.6836 47.7007 16.5273 46.6616 16.5273C46.2007 16.5273 45.8257 16.9023 45.8257 17.3633V19.875L41.9859 16.7148C41.8374 16.5937 41.6499 16.5234 41.4546 16.5234H31.1306C30.7595 16.5234 30.408 16.4023 30.1033 16.2031L31.5603 15.0078H41.5833C43.5442 15.0039 45.1382 13.4101 45.1382 11.4531ZM24.1732 3.55475C24.1732 2.51565 25.017 1.67195 26.056 1.67195H41.587C42.6261 1.67195 43.4698 2.5157 43.4698 3.55475V11.4531C43.4698 12.4922 42.6261 13.3359 41.587 13.3359H31.263C31.0677 13.3359 30.8802 13.4024 30.7318 13.5274L26.892 16.6836V14.1719C26.892 13.7109 26.517 13.3359 26.056 13.3359C25.0169 13.3359 24.1732 12.4922 24.1732 11.4531L24.1732 3.55475ZM27.0013 9.50395C27.0013 9.04301 27.3763 8.66801 27.8372 8.66801H37.0638C37.5248 8.66801 37.8998 9.04301 37.8998 9.50395C37.8998 9.96489 37.5248 10.3399 37.0638 10.3399H27.8372C27.3763 10.3399 27.0013 9.96489 27.0013 9.50395ZM33.849 5.50395C33.849 5.04301 34.224 4.66801 34.6849 4.66801H39.806C40.267 4.66801 40.642 5.04301 40.642 5.50395C40.642 5.96489 40.267 6.33989 39.806 6.33989H34.6849C34.224 6.33989 33.849 5.96489 33.849 5.50395ZM27.0013 5.50395C27.0013 5.04301 27.3763 4.66801 27.8372 4.66801H30.1028C30.5638 4.66801 30.9388 5.04301 30.9388 5.50395C30.9388 5.96489 30.5638 6.33989 30.1028 6.33989H27.8372C27.3763 6.33989 27.0013 5.96489 27.0013 5.50395Z" fill="#A6FF48"/>
</svg>
