<svg width="84" height="82" viewBox="0 0 84 82" fill="none" xmlns="http://www.w3.org/2000/svg">
<path d="M35.0234 14.0225C37.5405 14.0225 39.5879 16.0689 39.5879 18.5859V31.0674C39.5877 33.5842 37.5403 35.6309 35.0234 35.6309H30.2949L30.6123 38.832H51.916L52.2344 35.6309H47.5049C44.9881 35.6307 42.9416 33.5841 42.9414 31.0674V18.5859C42.9414 16.069 44.988 14.0226 47.5049 14.0225H70.0127C72.5101 14.0227 74.54 16.0691 74.54 18.5859V31.0674C74.5398 33.5841 72.5099 35.6306 70.0127 35.6309H65.2832L65.6045 38.832H76.3047C78.0822 38.832 79.5254 40.0356 79.5254 41.5146V45.2803C79.5286 45.9063 79.2629 46.516 78.7861 46.9961C78.504 47.2815 78.1505 47.4921 77.7646 47.6543V75H79.5C81.433 75 83 76.567 83 78.5C83 80.433 81.433 82 79.5 82H3.5C1.56701 82 0 80.433 0 78.5C0 76.567 1.567 75 3.5 75H5.41016V47.8232C4.03488 47.5183 3 46.5161 3 45.2803V41.5146C3 40.0356 4.44654 38.8321 6.2207 38.832H16.9248L17.2461 35.6309H12.5137C10.0163 35.6309 7.98558 33.5842 7.98535 31.0674V18.5859C7.98535 16.0689 10.0161 14.0225 12.5137 14.0225H35.0234ZM3.5 77L3.34668 77.0078C2.59028 77.0846 2 77.7233 2 78.5C2 79.3284 2.67157 80 3.5 80H79.5C80.3284 80 81 79.3284 81 78.5C81 77.7233 80.4097 77.0846 79.6533 77.0078L79.5 77H3.5ZM7.03223 75H17.5244V72.8018C17.5246 72.4711 17.7292 72.1731 18.0371 72.0498L22.9609 70.0938V60.6191H16.1143C14.3789 60.6191 12.9678 59.208 12.9678 57.4727V51.2295C12.9678 50.7819 13.3308 50.418 13.7783 50.418H33.7686C34.2162 50.418 34.5791 50.7851 34.5791 51.2295V57.4727C34.5791 59.2078 33.1687 60.6189 31.4336 60.6191H24.583V64.6279H26.8955C27.3431 64.628 27.7061 64.9919 27.7061 65.4395C27.7059 65.8869 27.343 66.25 26.8955 66.25H24.5791V70.0938L29.5068 72.0498C29.8147 72.1731 30.0184 72.4679 30.0186 72.8018V75H52.5098V72.8057C52.5098 72.4748 52.7114 72.176 53.0195 72.0527L57.9463 70.0938V60.6191H51.0986C49.3635 60.6189 47.9492 59.2078 47.9492 57.4727V55.9258C47.9492 55.9161 47.9365 55.9094 47.9365 55.8965V51.2295C47.9365 50.782 48.2996 50.4182 48.7471 50.418H68.7373C69.1849 50.418 69.5488 50.7819 69.5488 51.2295V55.835C69.5488 55.8544 69.5615 55.8738 69.5615 55.8965V57.4727C69.5615 59.208 68.1504 60.6191 66.415 60.6191H59.5684V64.6279H61.8838C62.3314 64.6279 62.6943 64.9918 62.6943 65.4395C62.6942 65.887 62.3313 66.25 61.8838 66.25H59.5684V70.0938L64.4951 72.0527C64.8032 72.176 65.0078 72.4716 65.0078 72.8057V75H76.1426V47.96H7.03223V75ZM24.583 72.9453C24.5828 73.3927 24.2189 73.7559 23.7715 73.7559C23.3242 73.7556 22.9612 73.3926 22.9609 72.9453V71.8389L19.1465 73.3535V75H28.3975V73.3535L24.583 71.8389V72.9453ZM59.5684 72.9453C59.5681 73.3927 59.2043 73.7559 58.7568 73.7559C58.3095 73.7557 57.9465 73.3926 57.9463 72.9453V71.8418L54.1318 73.3564V75H63.3857V73.3564L59.5684 71.8418V72.9453ZM14.8613 55.624C14.7125 55.6243 14.5891 55.7473 14.5889 55.8994V57.4766C14.589 58.3165 15.2743 59.001 16.1143 59.001H31.4336C32.2734 59.0008 32.9578 58.3164 32.958 57.4766V55.8994C32.9578 55.7472 32.8339 55.624 32.6816 55.624H14.8613ZM49.8408 55.624C49.6918 55.624 49.5686 55.7504 49.5684 55.8994V57.4766C49.5685 58.3165 50.2525 59.0009 51.0957 59.001H66.415C67.255 59.001 67.9396 58.3165 67.9365 57.4766V55.9287C67.9362 55.9192 67.9238 55.9122 67.9238 55.8994V55.8711C67.9076 55.735 67.8004 55.6242 67.6611 55.624H49.8408ZM49.5586 52.043V54.0605C49.6558 54.0443 49.7433 54.002 49.8438 54.002H67.6641C67.7581 54.002 67.836 54.0417 67.9268 54.0547V52.04L49.5586 52.043ZM14.5889 54.0576C14.6828 54.0447 14.7642 54.0021 14.8613 54.002H32.6816C32.7789 54.002 32.8639 54.0446 32.958 54.0576V52.04H14.5889V54.0576ZM6.2207 40.4541C5.35474 40.4542 4.62207 40.9373 4.62207 41.5146V45.2803C4.62207 45.8446 5.37096 46.3378 6.2207 46.3379H76.3076C76.8363 46.3379 77.3367 46.1565 77.6416 45.8516C77.7616 45.7315 77.9043 45.5329 77.9043 45.2832V41.5146C77.9043 40.9373 77.174 40.4541 76.3047 40.4541H6.2207ZM18.5566 38.832H28.9814L27.917 28.1279H19.623L18.5566 38.832ZM53.5449 38.832H63.9727L62.9092 28.1279H54.6084L53.5449 38.832ZM12.5137 15.6436C10.8854 15.6436 9.60742 16.9382 9.60742 18.5859V31.0674C9.60765 32.689 10.9115 34.0088 12.5137 34.0088H17.4043L18.083 27.2363C18.1252 26.8212 18.4755 26.5068 18.8906 26.5068H28.6504C29.0655 26.5069 29.4162 26.8215 29.4551 27.2334L30.1289 34.0088H35.0205C36.6422 34.0088 37.9627 32.689 37.9629 31.0674V18.5859C37.9629 16.9641 36.6423 15.6436 35.0205 15.6436H12.5137ZM47.5049 15.6436C45.8832 15.6437 44.5635 16.9642 44.5635 18.5859V31.0674C44.5637 32.6889 45.8833 34.0087 47.5049 34.0088H52.3936L53.0674 27.2363C53.1128 26.8213 53.46 26.5071 53.875 26.5068H63.6387C64.0538 26.5068 64.4009 26.8244 64.4463 27.2363L65.1211 34.0088H70.0127C71.6179 34.0086 72.9187 32.6888 72.9189 31.0674V18.5859C72.9189 16.9351 71.6408 15.6438 70.0127 15.6436H47.5049ZM23.7725 0C24.2197 0.000251107 24.5828 0.363248 24.583 0.810547V3.01953C27.0448 3.41202 28.9393 5.53344 28.9395 8.10547C28.9395 8.55308 28.5755 8.91699 28.1279 8.91699H19.416C18.9684 8.91699 18.6055 8.55308 18.6055 8.10547C18.6056 5.53349 20.4992 3.41275 22.9609 3.02344V0.810547C22.9611 0.363093 23.325 0 23.7725 0ZM58.7568 0C59.2043 0 59.5682 0.363093 59.5684 0.810547V3.02344C62.0332 3.41604 63.9237 5.53354 63.9238 8.10547C63.9238 8.55308 63.5609 8.91699 63.1133 8.91699H54.3975C53.95 8.9168 53.5869 8.55297 53.5869 8.10547C53.587 5.53017 55.4845 3.41199 57.9463 3.01953V0.810547C57.9465 0.363205 58.3095 0.000182724 58.7568 0ZM23.7725 4.56055C22.0955 4.56055 20.6878 5.73152 20.3213 7.29492H27.2236C26.8571 5.72842 25.4492 4.56076 23.7725 4.56055ZM58.7539 4.56055C57.077 4.56056 55.6693 5.73153 55.3027 7.29492H62.2051C61.8386 5.72827 60.4308 4.56055 58.7539 4.56055Z" fill="#053D3D"/>
</svg>
