<svg width="64" height="64" viewBox="0 0 64 64" fill="none" xmlns="http://www.w3.org/2000/svg">
<path fill-rule="evenodd" clip-rule="evenodd" d="M55.0117 41.6283L39.3756 57.2657C30.3984 66.2448 15.7096 66.2448 6.73239 57.2657C2.23973 52.776 0 46.8603 0 40.9438C0 35.0274 2.23973 29.1096 6.73239 24.622L22.3711 8.98468C22.7501 8.60572 23.3634 8.60572 23.7424 8.98468L30.7617 16.0087C31.1407 16.3877 31.1407 17.0009 30.7617 17.3798L15.1256 33.0172C10.7672 37.3752 10.7672 44.5146 15.1256 48.8728C19.4893 53.2309 26.6241 53.2309 30.9827 48.8728L46.6187 33.2355C46.9977 32.8565 47.6162 32.8565 47.9952 33.2355L55.0145 40.2595C55.0198 40.2648 55.0277 40.27 55.0329 40.2779C55.0382 40.2832 55.0461 40.2911 55.0514 40.2963L55.0645 40.3148C55.0698 40.3226 55.0777 40.3279 55.083 40.3332C55.0882 40.3384 55.0961 40.3463 55.1014 40.3516C55.1014 40.3595 55.1066 40.3648 55.1145 40.3727C55.1198 40.3779 55.1198 40.3858 55.1277 40.3911C55.133 40.3963 55.1409 40.4042 55.1409 40.4095C55.1461 40.4174 55.154 40.4226 55.1593 40.4305C55.1593 40.4358 55.1645 40.4437 55.1724 40.4516L55.1856 40.4727C55.1856 40.4805 55.1909 40.4858 55.1909 40.4937C55.1961 40.5016 55.204 40.5069 55.204 40.5148L55.2172 40.5358C55.2172 40.5437 55.2224 40.549 55.2224 40.5569L55.2356 40.5779C55.2356 40.5858 55.2409 40.5937 55.2409 40.599C55.2461 40.6069 55.2461 40.6148 55.254 40.62L55.2593 40.6411C55.2593 40.649 55.2646 40.6569 55.2646 40.6648C55.2646 40.6727 55.2698 40.6806 55.2698 40.6884L55.2751 40.7095C55.2751 40.7174 55.2803 40.7253 55.2803 40.7332L55.2856 40.7542V40.7779C55.2909 40.7858 55.2909 40.7937 55.2909 40.8016V40.8227C55.2961 40.8306 55.2961 40.8385 55.2961 40.8463V40.8937C55.2961 40.9016 55.3014 40.9095 55.3014 40.9174V40.9648C55.3014 40.9727 55.2961 40.9806 55.2961 40.9885V41.0358C55.2961 41.0437 55.2961 41.0516 55.2909 41.0595V41.0832C55.2909 41.0911 55.2909 41.099 55.2856 41.1043V41.1279C55.2803 41.1358 55.2803 41.1437 55.2803 41.1516C55.2803 41.1595 55.2751 41.1674 55.2751 41.1753L55.2698 41.199L55.2646 41.22C55.2646 41.2279 55.2593 41.2358 55.2593 41.2437L55.254 41.2648L55.2409 41.2885C55.2409 41.2964 55.2356 41.3043 55.2356 41.3095C55.2356 41.3174 55.2303 41.3227 55.2303 41.3306H55.2251C55.2251 41.3385 55.2198 41.3464 55.2198 41.3516C55.2145 41.3595 55.2145 41.3674 55.2066 41.3727L55.1935 41.3937C55.1935 41.4016 55.1882 41.4069 55.1882 41.4148L55.1619 41.4569L55.1435 41.4779C55.1435 41.4858 55.1382 41.4911 55.1303 41.499C55.1251 41.5043 55.1251 41.5122 55.1172 41.5174C55.1119 41.5253 55.104 41.5306 55.104 41.5358C55.0987 41.5437 55.0908 41.549 55.0856 41.5543C55.0803 41.5622 55.0724 41.5674 55.0672 41.5727L55.054 41.5911L55.0356 41.6095C55.0303 41.6148 55.0224 41.6227 55.0172 41.6279L55.0117 41.6283ZM29.4848 3.18746C29.319 3.69537 28.7741 3.97434 28.2662 3.80853C27.7582 3.64274 27.4766 3.09798 27.6424 2.59007L28.2741 0.668936C28.4399 0.161024 28.9847 -0.11795 29.4927 0.0478621C30.0006 0.213654 30.2822 0.758417 30.1164 1.26632L29.4848 3.18746ZM37.8698 12.8693L39.7911 12.2403C40.299 12.0745 40.5754 11.5271 40.4096 11.0192C40.2437 10.5113 39.6989 10.2323 39.191 10.3981L37.2697 11.0271C36.7617 11.1929 36.4801 11.7376 36.6459 12.2456C36.817 12.7535 37.3618 13.0324 37.8698 12.8666L37.8698 12.8693ZM35.1352 6.72959C34.7562 7.10855 34.143 7.10855 33.764 6.72959C33.385 6.35063 33.385 5.73743 33.764 5.35847L35.2378 3.88474C35.6116 3.50578 36.2301 3.50578 36.6091 3.88474C36.9828 4.2637 36.9828 4.8769 36.6091 5.25586L35.1352 6.72696V6.72959ZM53.0297 27.2513L53.6535 25.3301C53.8193 24.8222 53.543 24.2749 53.035 24.1117C52.5271 23.9459 51.977 24.2248 51.8112 24.7328L51.1874 26.6539C51.0216 27.1618 51.298 27.7092 51.8059 27.8724C52.3139 28.0381 52.8639 27.7592 53.0297 27.2513ZM61.4073 36.9358C60.8994 37.0989 60.3546 36.8226 60.1888 36.3147C60.023 35.8068 60.2993 35.2594 60.8125 35.0936L62.7338 34.4646C63.2418 34.2989 63.7866 34.5778 63.9524 35.0857C64.1182 35.5936 63.8366 36.141 63.3286 36.3042L61.4073 36.9331V36.9358ZM58.6781 30.7961C58.2991 31.1751 57.6805 31.1751 57.3016 30.7961C56.9278 30.4171 56.9278 29.8039 57.3016 29.425L58.7754 27.9513C59.1544 27.5723 59.7677 27.5723 60.1467 27.9513C60.5256 28.3302 60.5256 28.9434 60.1467 29.3224L58.6781 30.7961ZM17.8863 16.2064L23.5343 21.8592L28.7008 16.6932L23.0527 11.0404L17.8863 16.2064ZM22.1632 23.2304L16.5151 17.5776L8.10115 25.9908C3.98747 30.1041 1.93202 35.5224 1.93202 40.941C1.93202 52.652 11.3385 62.0576 23.0532 62.0576C28.4749 62.0576 33.8914 60.0022 38.0047 55.8916L46.4187 47.4784L40.7628 41.8256L32.3488 50.2389C27.2324 55.3548 18.8654 55.3548 13.7495 50.2389C8.63362 45.1229 8.63309 36.7567 13.7495 31.6413L22.1635 23.2254L22.1632 23.2304ZM42.1389 40.457L47.787 46.1098L52.9534 40.9438L47.2975 35.2911L42.1389 40.457Z" fill="#A6FF48"/>
</svg>
