<svg width="73" height="81" viewBox="0 0 73 81" fill="none" xmlns="http://www.w3.org/2000/svg">
<path fill-rule="evenodd" clip-rule="evenodd" d="M63.6983 7.43965H64.0049C65.4675 7.43965 66.6587 6.23546 66.6587 4.7538V2.68586C66.6587 1.20429 65.4675 0 64.0049 0L29.0983 0.00350952C27.6358 0.00350952 26.4446 1.20771 26.4446 2.68937V4.75731C26.4446 6.23888 27.6358 7.44317 29.0983 7.44317H29.405L29.3943 73.6937L2.69607 73.6938C1.20887 73.6938 0 74.898 0 76.3832V78.3141C0 79.7957 1.20878 81 2.69607 81H69.6918C71.179 81 72.3878 79.7958 72.3878 78.3141V76.3832C72.3914 74.8981 71.1826 73.6938 69.6953 73.6938H69.6936H63.6976L63.6983 7.43965ZM41.5137 73.6938H51.5782L51.5819 58.1438H41.5137V73.6938ZM40.5025 56.1215H52.5897C53.15 56.1215 53.6084 56.5814 53.6084 57.1292V73.6939H61.6754V48.4298H31.4242V73.6939H39.4911V57.1292C39.4911 56.5709 39.9421 56.1215 40.5025 56.1215ZM61.6749 28.108H31.4237V35.8004H61.6749V28.108ZM40.1567 37.823H31.4237V46.4072H40.1567V37.823ZM50.9122 37.823H42.1796V46.4072H50.9122V37.823ZM61.6647 37.823H52.9316V46.4072H61.6647V37.823ZM52.9352 26.0929H61.6683V17.5087H52.9352V26.0929ZM42.1796 26.0929H50.9121V17.5087H42.1796V26.0929ZM31.4273 26.0929H40.1602V17.5087H31.4273V26.0929ZM28.4668 2.68945V4.75739C28.4668 5.12604 28.7445 5.43149 29.097 5.43149H63.9972C64.3426 5.43149 64.621 5.12604 64.621 4.75739V2.68945C64.621 2.3208 64.3391 2.01536 63.9972 2.01536H29.0906C28.7453 2.01536 28.4668 2.3208 28.4668 2.68945ZM61.6683 15.4867V7.44325L31.4243 7.44676V15.4902L61.6683 15.4867ZM69.694 78.9879C70.064 78.9879 70.3706 78.6825 70.3706 78.3139L70.3679 76.3829C70.3679 76.0142 70.0613 75.7088 69.6913 75.7088H2.69554C2.32549 75.7088 2.01889 76.0142 2.01889 76.3829V78.3139C2.01889 78.6825 2.32549 78.9879 2.69554 78.9879H69.694Z" fill="#A6FF48"/>
<path fill-rule="evenodd" clip-rule="evenodd" d="M22.6404 75.0003H30.6953L30.6953 30.254L17.1953 19.3997L3.69531 30.4928L3.69535 75.0003H12.3373V54.1887H22.6404V75.0003ZM24.2388 73.4291H29.0969L29.0969 31.0001L17.2054 21.4385L5.29376 31.2281L5.29379 73.4291H10.7388V52.6176H24.2388V73.4291Z" fill="#A6FF48"/>
</svg>
