<svg width="74" height="80" viewBox="0 0 74 80" fill="none" xmlns="http://www.w3.org/2000/svg">
<path d="M9.21636 25.4496C9.21636 24.9222 9.64605 24.4964 10.1734 24.4964H48.0284C48.5557 24.4964 48.9854 24.9222 48.9854 25.4496C48.9854 25.9769 48.5557 26.4066 48.0284 26.4066H10.1734C9.64605 26.4066 9.21636 25.9769 9.21636 25.4496ZM19.2394 16.5394H48.0284C48.5557 16.5394 48.9854 16.1097 48.9854 15.5862C48.9854 15.0589 48.5557 14.6292 48.0284 14.6292H19.2394C18.712 14.6292 18.2862 15.0589 18.2862 15.5862C18.2862 16.1097 18.712 16.5394 19.2394 16.5394ZM10.173 46.1374H40.489C41.0163 45.4655 41.5906 44.821 42.2078 44.2272H10.1728C9.64542 44.2272 9.21573 44.6569 9.21573 45.1803C9.21573 45.7076 9.64562 46.1374 10.173 46.1374ZM10.173 36.2741H48.028C48.5553 36.2741 48.985 35.8444 48.985 35.317C48.985 34.7897 48.5553 34.36 48.028 34.36H10.173C9.64562 34.36 9.21593 34.7897 9.21593 35.317C9.21593 35.8444 9.64562 36.2741 10.173 36.2741ZM36.778 54.0901H10.173C9.64562 54.0901 9.21593 54.5197 9.21593 55.0471C9.21593 55.5744 9.64562 56.0041 10.173 56.0041H36.47C36.5403 55.3518 36.6418 54.715 36.7785 54.0861L36.778 54.0901ZM39.2741 70.3831C35.3288 70.6057 33.2819 70.1878 31.1179 69.7503C29.8132 69.4846 28.4656 69.2112 26.6687 69.0667C25.9421 69.0081 25.3171 69.2776 24.8132 69.4964C24.61 69.5862 24.3053 69.7151 24.1803 69.7229C24.1178 69.6643 23.8835 69.3831 23.6335 68.3557C23.5514 68.0159 23.2897 67.7502 22.9499 67.6604C22.6139 67.5706 22.2546 67.6721 22.0124 67.926C21.0514 68.9338 20.4499 69.426 20.0983 69.6604C20.1412 68.7698 20.5006 67.5002 20.8444 66.2698C21.4108 64.262 21.9421 62.3636 21.5319 61.0471C21.3561 60.4846 20.8327 60.1487 20.196 60.1995C19.0398 60.2893 17.2116 61.7503 15.9968 62.9729C14.9382 64.0393 13.114 66.1487 12.7976 68.3127C12.6335 69.4338 12.7663 71.4729 15.5398 72.5549C15.6531 72.6017 15.7702 72.6213 15.8874 72.6213C16.2702 72.6213 16.6296 72.3908 16.7781 72.0119C16.9695 71.5197 16.7273 70.965 16.2351 70.7736C14.7117 70.1798 14.6023 69.3439 14.6765 68.6798C14.946 66.3282 18.2156 63.2618 19.7585 62.3595C19.696 63.2814 19.321 64.6173 19.0007 65.7462C18.571 67.2774 18.1647 68.7228 18.1765 69.8868C18.1882 71.0587 18.7194 71.5118 19.1608 71.6876C19.9616 72.004 20.8913 71.6173 22.2975 70.3243C22.5749 70.8751 22.9147 71.2345 23.3327 71.4415C24.1609 71.8556 24.9733 71.504 25.5671 71.2501C25.9109 71.1016 26.2664 70.9493 26.5164 70.9727C28.1961 71.1095 29.4852 71.3712 30.7352 71.6251C32.9227 72.0704 35.1883 72.5274 39.3797 72.2931C39.907 72.2618 40.3093 71.8126 40.282 71.2852C40.2507 70.7579 39.8014 70.3518 39.2741 70.3831ZM57.8791 76.0237V79.0471C57.8791 79.5744 57.4494 80.0041 56.922 80.0041H0.957029C0.429689 80.0041 0 79.5744 0 79.0471V5.95706C0 5.42972 0.429689 5.00003 0.957029 5.00003H5.32033V0.95703C5.32033 0.42969 5.75002 0 6.27736 0H62.2464C62.7737 0 63.2034 0.42969 63.2034 0.95703V41.699C69.4612 44.5271 73.8244 50.8279 73.8244 58.125C73.8244 67.3594 66.8439 74.988 57.8834 76.02L57.8791 76.0237ZM7.23106 5.00066H56.9221C57.4494 5.00066 57.8791 5.43035 57.8791 5.95769V40.2347C59.0549 40.3714 60.1916 40.6175 61.2853 40.9691L61.2892 1.91407H7.2302L7.23106 5.00066ZM55.9691 76.1417C55.9144 76.1417 55.8636 76.1456 55.8089 76.1456C45.8753 76.1456 37.7929 68.0636 37.7929 58.1296C37.7929 48.1956 45.8749 40.1136 55.8089 40.1136C55.8636 40.1136 55.9144 40.1175 55.9691 40.1175V6.91447H1.91006V78.0945H55.9651V76.1453L55.9691 76.1417ZM71.9101 58.1297C71.9101 49.2508 64.6874 42.0277 55.8081 42.0277C46.9292 42.0277 39.7061 49.2504 39.7061 58.1297C39.7061 67.009 46.9288 74.2317 55.8081 74.2317C64.687 74.2317 71.9101 67.009 71.9101 58.1297ZM68.5703 58.1297C68.5703 61.2195 67.4805 64.1414 65.4805 66.4539L66.0664 67.0398C66.332 67.3054 66.418 67.7 66.2851 68.0515C66.1523 68.403 65.8281 68.6453 65.4531 68.6687L60.0703 69.0163C59.7969 69.032 59.5273 68.9304 59.332 68.739C59.1367 68.5437 59.0352 68.2742 59.0547 68.0007L59.4024 62.6179C59.4258 62.2429 59.668 61.9187 60.0196 61.7859C60.3711 61.6531 60.7656 61.739 61.0312 62.0047L61.5508 62.5203C62.5156 61.2664 63.0352 59.7391 63.0352 58.1297C63.0352 54.1414 59.793 50.8992 55.8086 50.8992C51.8242 50.8992 48.5781 54.1414 48.5781 58.1297C48.5781 60.7 49.9648 63.1024 52.1914 64.3914C52.6484 64.657 52.8047 65.239 52.539 65.6961L50.7265 68.8367C50.5976 69.0554 50.3906 69.2156 50.1445 69.282C50.0625 69.3054 49.9805 69.3132 49.8984 69.3132C49.7305 69.3132 49.5664 69.2703 49.418 69.1843C45.4805 66.907 43.039 62.6687 43.039 58.1293C43.039 51.0941 48.7657 45.3673 55.8051 45.3673C62.8442 45.3673 68.5671 51.0939 68.5671 58.1293L68.5703 58.1297ZM66.6562 58.1297C66.6562 52.1453 61.789 47.2777 55.8042 47.2777C49.8194 47.2777 44.9492 52.1449 44.9492 58.1297C44.9492 61.6688 46.6953 64.993 49.5664 67.0164L50.4257 65.5242C48.0819 63.8172 46.6601 61.0633 46.6601 58.1297C46.6601 53.0906 50.7617 48.9891 55.8007 48.9891C60.8397 48.9891 64.9374 53.0907 64.9374 58.1297C64.9374 60.5711 63.9882 62.8641 62.2616 64.5906C61.9648 64.8874 61.5273 64.946 61.1678 64.7742L61.0233 67.0397L63.2889 66.8952C63.117 66.5398 63.1795 66.0983 63.4725 65.8014C65.5233 63.7506 66.6522 61.028 66.6522 58.1295L66.6562 58.1297Z" fill="#A6FF48"/>
</svg>
