<svg width="63" height="63" viewBox="0 0 63 63" fill="none" xmlns="http://www.w3.org/2000/svg">
<path d="M47.898 33.141C50.1675 28.4066 48.5386 22.723 44.105 19.907C40.0542 17.3484 34.7534 18.0476 31.5 21.5632C28.2461 18.0476 22.9453 17.3523 18.895 19.907C14.4614 22.7234 12.8325 28.407 15.102 33.141C18.3481 40.0824 25.149 44.95 30.707 48.418V48.4141C31.1913 48.7188 31.8086 48.7188 32.2929 48.4141C37.8554 44.9453 44.656 40.0781 47.898 33.141ZM31.5 45.371C26.4531 42.164 20.582 37.7851 17.82 31.871C16.1989 28.496 17.3551 24.4413 20.5114 22.4296C21.5817 21.7421 22.82 21.3749 24.0895 21.3671C26.5778 21.4843 28.8786 22.7148 30.3551 24.7226C30.6402 25.0586 31.0582 25.25 31.4996 25.25C31.9409 25.25 32.3589 25.0586 32.6441 24.7226C36.1285 20.621 40.0152 20.8515 42.4879 22.4335V22.4296C45.6441 24.4413 46.8004 28.496 45.1793 31.871C42.4215 37.7812 36.5472 42.164 31.5 45.371Z" fill="#A6FF48"/>
<path d="M33 7.5V1.5C33 0.67188 32.3281 0 31.5 0C30.6719 0 30 0.67188 30 1.5V7.5C30 8.32812 30.6719 9 31.5 9C32.3281 9 33 8.32812 33 7.5Z" fill="#A6FF48"/>
<path d="M14.5271 16.027C15.1365 16.027 15.6833 15.6637 15.9138 15.1012C16.1443 14.5426 16.0193 13.8981 15.5896 13.4684L11.3474 9.2262C10.7575 8.67542 9.83568 8.69104 9.26538 9.26527C8.69116 9.83558 8.67555 10.7575 9.22632 11.3473L13.4685 15.5895C13.7498 15.8707 14.1326 16.0309 14.5271 16.027Z" fill="#A6FF48"/>
<path d="M1.5 33H7.5C8.32812 33 9 32.3281 9 31.5C9 30.6719 8.32812 30 7.5 30H1.5C0.67188 30 0 30.6719 0 31.5C0 32.3281 0.67188 33 1.5 33Z" fill="#A6FF48"/>
<path d="M9.227 53.7729C9.81294 54.3589 10.7622 54.3589 11.3481 53.7729L15.5903 49.5307C15.8872 49.2534 16.0591 48.8667 16.0669 48.4604C16.0747 48.0542 15.9145 47.6597 15.6255 47.3745C15.3403 47.0855 14.9458 46.9253 14.5396 46.9331C14.1333 46.9409 13.7466 47.1128 13.4693 47.4097L9.22705 51.6519C8.64111 52.2378 8.64106 53.187 9.227 53.7729Z" fill="#A6FF48"/>
<path d="M30 55.5V61.5C30 62.3281 30.6719 63 31.5 63C32.3281 63 33 62.3281 33 61.5V55.5C33 54.6719 32.3281 54 31.5 54C30.6719 54 30 54.6719 30 55.5Z" fill="#A6FF48"/>
<path d="M51.6521 53.773C52.242 54.3237 53.1638 54.3081 53.7341 53.7378C54.3083 53.1636 54.324 52.2456 53.7732 51.6519L49.531 47.4097C49.2536 47.1128 48.8669 46.9409 48.4607 46.9331C48.0505 46.9253 47.6599 47.0855 47.3709 47.3745C47.0857 47.6597 46.9256 48.0542 46.9334 48.4604C46.9412 48.8667 47.1131 49.2534 47.4099 49.5307L51.6521 53.773Z" fill="#A6FF48"/>
<path d="M61.5 30H55.5C54.6719 30 54 30.6719 54 31.5C54 32.3281 54.6719 33 55.5 33H61.5C62.3281 33 63 32.3281 63 31.5C63 30.6719 62.3281 30 61.5 30Z" fill="#A6FF48"/>
<path d="M53.773 9.22705C53.1871 8.64111 52.2378 8.64111 51.6519 9.22705L47.4097 13.4693C47.1128 13.7466 46.9409 14.1333 46.9331 14.5396C46.9253 14.9458 47.0855 15.3403 47.3745 15.6255C47.6597 15.9145 48.0542 16.0747 48.4604 16.0669C48.8667 16.0591 49.2534 15.8872 49.5307 15.5903L53.7729 11.3481C54.3589 10.7622 54.3589 9.81295 53.773 9.22705Z" fill="#A6FF48"/>
</svg>
