<svg width="75" height="94" viewBox="0 0 75 94" fill="none" xmlns="http://www.w3.org/2000/svg">
<path d="M26.4496 61.8405H26.434V58.1375H26.4379C26.434 57.7117 26.0903 57.3679 25.6645 57.3679C25.2426 57.3679 24.8949 57.7117 24.8949 58.1375V61.9266C22.7152 62.3094 21.1097 63.7976 20.9808 65.6726C20.809 67.9343 22.8285 69.946 25.5472 70.2507C25.598 70.2586 25.6527 70.2625 25.7426 70.2703L25.7504 70.2742C27.7426 70.4265 29.2621 71.9031 29.1371 73.5672L29.141 73.5633C29.0629 74.3758 28.6332 75.118 27.9652 75.5828C27.1917 76.1375 26.2425 76.3953 25.2972 76.3093C23.9378 76.2547 22.7152 75.4578 22.1175 74.2351C21.9495 73.8445 21.4964 73.6648 21.1058 73.8328C20.7152 74.0008 20.5316 74.4539 20.6995 74.8445C21.4808 76.5007 23.0745 77.6257 24.8948 77.8054V80.8757C24.8948 81.3015 25.2425 81.6452 25.6644 81.6452C26.0901 81.6452 26.4339 81.3015 26.4378 80.8757V77.8015C27.3206 77.6843 28.1605 77.3484 28.8792 76.821C29.9144 76.0906 30.5706 74.9421 30.6761 73.6804C30.8636 71.2077 28.7738 69.0202 25.9964 68.7507C25.9925 68.7507 25.9847 68.7468 25.9808 68.7468C25.93 68.739 25.8792 68.7351 25.8284 68.7312L25.7503 68.7234C23.8636 68.5124 22.4105 67.2 22.5198 65.7859C22.6097 64.5086 23.9807 63.4695 25.6995 63.3718L25.6956 63.3679C25.9065 63.3601 26.1214 63.364 26.3323 63.3757C27.6565 63.4109 28.8714 64.1296 29.5432 65.278C29.7268 65.6608 30.1838 65.8249 30.5705 65.6413C30.9533 65.4577 31.1174 64.9967 30.9338 64.614C30.0236 62.9695 28.3246 61.9186 26.4496 61.8405Z" fill="#A6FF48"/>
<path d="M44.3718 68.0514C43.864 61.5983 40.0398 55.8714 34.2698 52.9304C28.5042 49.9929 21.6218 50.2585 16.1018 53.6413C10.5823 57.0202 7.21118 63.028 7.20728 69.5003C7.21899 74.4339 9.18388 79.1644 12.6721 82.6523C16.1604 86.1406 20.8909 88.1054 25.8241 88.1171C30.7577 88.1093 35.4921 86.1483 38.9801 82.6562C42.4684 79.1679 44.4332 74.4374 44.4371 69.5002C44.441 69.0159 44.4175 68.5315 44.3707 68.051L44.3718 68.0514ZM25.8248 86.5744C21.4693 86.5783 17.2779 84.9103 14.1178 81.9103C10.6725 78.7072 8.72328 74.2072 8.75058 69.5003C8.75448 63.5628 11.8444 58.0513 16.9147 54.9493C21.9811 51.8516 28.2937 51.6095 33.5827 54.3087C38.8718 57.0118 42.3796 62.2696 42.8366 68.1917C42.8795 68.6253 42.903 69.0628 42.8991 69.5003C42.8913 74.0276 41.0944 78.3675 37.8913 81.5663C34.6921 84.7694 30.3517 86.5705 25.8248 86.5744Z" fill="#A6FF48"/>
<path d="M54.4818 45.0125C46.4349 45.0125 39.3998 46.0398 36.2788 47.6492L36.2827 47.6452C31.0679 45.1413 25.1267 44.5866 19.5367 46.0788C13.9469 47.571 9.07568 51.0163 5.80268 55.7858C2.52928 60.5553 1.06828 66.3408 1.68548 72.0908C2.30267 77.8447 4.95498 83.1888 9.16598 87.1528C13.3769 91.1216 18.8691 93.4497 24.65 93.7231C30.4273 93.9966 36.115 92.1919 40.681 88.6411C45.2279 89.5161 49.8529 89.9263 54.482 89.8716C61.439 89.8716 74.595 88.8482 74.595 84.9771V49.9151C74.595 46.0362 61.4388 45.0125 54.4818 45.0125ZM73.0518 67.3995C73.0518 67.4151 73.0401 67.4307 73.0401 67.4463C73.0401 68.583 66.4893 70.7979 54.4781 70.7979C52.9429 70.7979 51.4547 70.751 50.0211 70.6807C50.0406 70.2784 50.0562 69.8839 50.0562 69.501L50.0601 69.5049C50.0601 67.4502 49.7945 65.4033 49.2711 63.419C51.0211 63.5206 52.7711 63.5831 54.482 63.5831C59.9937 63.5831 69.388 62.9386 73.052 60.7393L73.0518 67.3995ZM49.8998 72.2197C51.3764 72.2979 52.9037 72.3408 54.4818 72.3408C59.9935 72.3408 69.3878 71.6963 73.0518 69.501V76.1572C73.0518 76.1729 73.0401 76.1885 73.0401 76.2041C73.0401 77.3447 66.4893 79.5674 54.4781 79.5674C52.2554 79.5674 50.0797 79.4815 47.982 79.3174L47.9859 79.3213C48.9859 77.0674 49.6302 74.6729 49.8998 72.2197ZM73.0558 51.9818V58.6263C73.0558 58.6419 73.0441 58.6575 73.0441 58.6731C73.0441 59.8137 66.4933 62.0364 54.4821 62.0364C52.6227 62.0364 50.7165 61.97 48.8141 61.8489C48.732 61.6067 48.6539 61.3645 48.5641 61.1263C48.5172 60.9974 48.4625 60.8685 48.4156 60.7395C48.3062 60.4583 48.193 60.177 48.0719 59.8997C48.0094 59.7552 47.9469 59.6106 47.8805 59.47C47.7594 59.2005 47.6305 58.9349 47.4976 58.6731C47.4312 58.5403 47.3648 58.4075 47.2984 58.2786C47.1344 57.9622 46.9625 57.6536 46.7828 57.345C46.7398 57.2747 46.7047 57.2005 46.6617 57.1302C46.4391 56.7552 46.2047 56.3841 45.9586 56.0208C45.8961 55.927 45.8297 55.8372 45.7672 55.7434C45.5797 55.4739 45.3922 55.2044 45.193 54.9427C45.107 54.8255 45.0172 54.7122 44.9273 54.595C44.8336 54.4739 44.7438 54.3528 44.65 54.2356C44.7125 54.2434 44.7828 54.2473 44.8453 54.2551C45.4977 54.3333 46.1656 54.4075 46.8492 54.47C46.9508 54.4778 47.0562 54.4856 47.1578 54.4973C47.7984 54.552 48.4508 54.6028 49.1148 54.6419C49.2359 54.6497 49.3531 54.6575 49.4742 54.6653C50.1929 54.7044 50.9273 54.7356 51.6695 54.759C51.8296 54.763 51.9898 54.7669 52.15 54.7708C52.9195 54.7903 53.693 54.802 54.4781 54.802C54.7827 54.802 55.1031 54.7981 55.4312 54.7942C55.5054 54.7942 55.5757 54.7942 55.6499 54.7903C55.9781 54.7864 56.314 54.7786 56.6577 54.7708C56.7085 54.7708 56.7593 54.7669 56.814 54.7669C57.1304 54.759 57.4507 54.7473 57.7788 54.7356C57.8491 54.7317 57.9194 54.7317 57.9937 54.7278C58.353 54.7122 58.7202 54.6965 59.0875 54.677C59.1656 54.6731 59.2476 54.6692 59.3296 54.6653C59.6773 54.6458 60.0289 54.6223 60.3843 54.5989C60.4273 54.595 60.4703 54.595 60.5133 54.5911C60.8961 54.5637 61.2789 54.5364 61.6656 54.5012C61.7554 54.4934 61.8452 54.4856 61.9351 54.4778C62.3218 54.4426 62.7124 54.4075 63.0992 54.3684C63.1382 54.3645 63.1773 54.3606 63.2164 54.3567C63.5758 54.3176 63.9351 54.2786 64.2906 54.2356C64.3726 54.2239 64.4585 54.2161 64.5406 54.2044C64.9195 54.1575 65.2945 54.1067 65.6656 54.052C65.7359 54.0403 65.8101 54.0286 65.8804 54.0208C66.2164 53.97 66.5484 53.9153 66.8765 53.8606C66.9351 53.8489 66.9976 53.8411 67.0562 53.8294C67.4156 53.7669 67.7671 53.7005 68.1109 53.6301C68.189 53.6145 68.2632 53.5989 68.3414 53.5833C68.6929 53.5091 69.0367 53.4348 69.3648 53.3528H69.3687C69.6968 53.2708 70.0132 53.1848 70.3218 53.095C70.3882 53.0755 70.4546 53.0559 70.521 53.0364C70.8218 52.9466 71.107 52.8528 71.3804 52.7512C71.4195 52.7356 71.4546 52.7239 71.4898 52.7083C71.7359 52.6145 71.9703 52.5208 72.1929 52.4192C72.2398 52.3997 72.2867 52.3801 72.3296 52.3606C72.5679 52.2512 72.7867 52.138 72.9898 52.0169C73.0171 52.0012 73.0402 51.9935 73.0558 51.9818ZM54.4818 46.5521C66.4978 46.5521 73.0518 48.7748 73.0518 49.9154C73.0518 51.0521 66.4971 53.2669 54.4818 53.2669C53.9505 53.2669 53.4271 53.263 52.9037 53.2552C52.7279 53.2513 52.5599 53.2474 52.3881 53.2435C52.0443 53.2357 51.6966 53.2279 51.3569 53.2162C51.1576 53.2084 50.9662 53.2005 50.7709 53.1927C50.4584 53.181 50.1459 53.1693 49.8412 53.1498C49.6381 53.138 49.4428 53.1263 49.2436 53.1146C48.9467 53.0951 48.6537 53.0794 48.3608 53.0599C48.1576 53.0443 47.9584 53.0287 47.7553 53.0091C47.4779 52.9857 47.1967 52.9662 46.9233 52.9388C46.724 52.9193 46.5287 52.8998 46.3334 52.8802C46.0639 52.8529 45.7983 52.8255 45.5326 52.7982C45.3412 52.7748 45.1537 52.7513 44.9662 52.7279C44.7084 52.6966 44.4506 52.6654 44.2006 52.6302C44.0131 52.6029 43.8334 52.5755 43.6498 52.5482C43.4506 52.5169 43.2475 52.4896 43.0522 52.4584C42.6498 52.0521 42.2319 51.6654 41.8022 51.2904C41.6967 51.2005 41.5912 51.1146 41.4858 51.0286C41.1108 50.7044 40.7279 50.3997 40.3413 50.1107C40.1772 49.9896 40.0131 49.8724 39.8491 49.7552C39.4897 49.5013 39.1225 49.2552 38.7514 49.0208C38.5873 48.9193 38.4271 48.8138 38.2631 48.7161C38.181 48.6653 38.1029 48.6107 38.0209 48.5638C41.31 47.3372 47.5794 46.5521 54.4818 46.5521ZM3.12977 69.5051C3.12977 62.2004 6.64537 55.3411 12.579 51.0751C18.5126 46.8091 26.134 45.6648 33.059 47.993C39.9848 50.3211 45.364 55.8408 47.516 62.8251C48.1839 64.9853 48.5238 67.2392 48.5199 69.5048C48.5199 70.0946 48.4925 70.7001 48.4417 71.3564H48.4378C48.2113 74.2392 47.4261 77.0517 46.1331 79.6376L46.1253 79.6571C45.9417 80.0204 45.7503 80.3797 45.5472 80.7352C45.1956 81.3485 44.8128 81.9422 44.4066 82.5204C44.2582 82.7313 44.1097 82.9384 43.9535 83.1415V83.1454C43.305 84.0087 42.598 84.8251 41.8363 85.5868C41.2582 86.1649 40.6527 86.7079 40.016 87.2157C36.0004 90.4696 30.9887 92.2313 25.825 92.2079C19.8055 92.2001 14.036 89.8056 9.78199 85.5477C5.52809 81.2938 3.13367 75.5251 3.12977 69.5051ZM54.4818 88.3331C50.3685 88.3604 46.2591 88.0401 42.2008 87.3721C42.3805 87.208 42.5523 87.0401 42.7242 86.8682C42.8023 86.7901 42.8844 86.7198 42.9625 86.6416C43.2477 86.3565 43.525 86.0635 43.7984 85.7627C43.8648 85.6885 43.9273 85.6104 43.9937 85.5362C44.1969 85.3057 44.3961 85.0752 44.5914 84.837C44.6812 84.7237 44.7711 84.6104 44.8609 84.4971C45.025 84.2901 45.1852 84.0791 45.3414 83.8682C45.4312 83.7432 45.525 83.6182 45.6109 83.4932C45.7594 83.2823 45.9078 83.0674 46.0484 82.8487C46.1305 82.7237 46.2164 82.5948 46.2984 82.4698C46.4469 82.2354 46.5914 81.9971 46.732 81.7588C46.7984 81.6455 46.8648 81.5362 46.9312 81.4229C47.0445 81.2237 47.15 81.0166 47.2594 80.8135C49.5836 81.0127 52.0094 81.1143 54.486 81.1143C59.9977 81.1143 69.392 80.4697 73.056 78.2705V84.9814C73.056 86.1181 66.5011 88.3331 54.4818 88.3331Z" fill="#A6FF48"/>
<path d="M16.5707 27.9535C16.7075 28.1957 16.9614 28.3402 17.2387 28.3402H20.9731L20.9692 43.1492C20.9692 43.3523 21.0512 43.5476 21.1958 43.6922C21.3403 43.8367 21.5356 43.9187 21.7426 43.9187H29.9184C30.1216 43.9187 30.3169 43.8367 30.4614 43.6922C30.6059 43.5476 30.688 43.3523 30.688 43.1492V28.3402H34.7388C35.0161 28.3402 35.27 28.1957 35.4067 27.9574C35.5435 27.7152 35.5435 27.4222 35.4067 27.1839L26.6567 12.0389C26.5083 11.8124 26.2583 11.6796 25.9888 11.6796C25.7192 11.6796 25.4692 11.8124 25.3208 12.0389L16.5708 27.1839C16.4341 27.4222 16.434 27.7152 16.5707 27.9535ZM25.9887 13.9615L33.4067 26.7975H29.9184V26.8014C29.7114 26.8014 29.5161 26.8795 29.3716 27.024C29.227 27.1686 29.145 27.3678 29.145 27.5709V42.3799H22.5122V27.5709C22.5122 27.3678 22.4302 27.1686 22.2856 27.024C22.1411 26.8795 21.9458 26.8014 21.7427 26.8014H18.5747L25.9887 13.9615Z" fill="#A6FF48"/>
<path d="M33.3098 13.0205C33.5911 13.251 33.9934 13.2549 34.2786 13.0283L43.1458 5.97361V5.96971C43.3294 5.82518 43.4349 5.60643 43.4349 5.37205C43.4388 5.14158 43.3333 4.91893 43.1536 4.77049L37.5325 0.172785V0.176691C37.3528 0.0282511 37.1145 -0.030339 36.888 0.016531C36.6614 0.063406 36.4661 0.211841 36.3606 0.418871L31.1965 10.5009V10.5048C31.0286 10.8251 31.1106 11.2196 31.3918 11.4501L33.3098 13.0205ZM37.2981 1.9735L41.4387 5.3602L33.8059 11.4344L32.8489 10.6531L37.2981 1.9735Z" fill="#A6FF48"/>
<path d="M38.4738 24.6335L39.1652 27.0124C39.2589 27.3444 39.5636 27.571 39.9034 27.571C39.923 27.571 39.9386 27.571 39.9581 27.5671L51.2631 26.7702C51.4936 26.7546 51.7084 26.6335 51.8413 26.4421C51.9741 26.2507 52.0131 26.0124 51.9467 25.7858L49.9194 18.817C49.853 18.5944 49.689 18.4108 49.4741 18.321C49.2593 18.2311 49.0171 18.2428 48.8101 18.3561L38.8453 23.7428C38.5288 23.9147 38.3722 24.2859 38.4738 24.6335ZM48.7038 20.1647L50.1999 25.3014L40.4694 25.985L40.1256 24.8014L48.7038 20.1647Z" fill="#A6FF48"/>
<path d="M17.6998 13.0275C17.9811 13.2501 18.3873 13.2501 18.6647 13.0197L20.5827 11.4494H20.5866C20.8678 11.2189 20.9499 10.8244 20.7819 10.504L15.6178 0.422047V0.418141C15.5123 0.211111 15.317 0.0626708 15.0904 0.0158008C14.8639 -0.0310742 14.6256 0.0275198 14.4459 0.175961L8.82481 4.77366V4.76975C8.64512 4.91819 8.53965 5.14084 8.54356 5.37131C8.54356 5.60569 8.64903 5.82443 8.83262 5.96897L17.6998 13.0275ZM14.6803 1.97247L19.1295 10.6522L18.1725 11.4334L10.5397 5.35922L14.6803 1.97247Z" fill="#A6FF48"/>
<path d="M12.0747 27.5706C12.4145 27.5706 12.7192 27.344 12.813 27.012L13.5044 24.6331C13.606 24.2854 13.4497 23.9143 13.1333 23.7425L3.1645 18.3558C2.96137 18.2425 2.71528 18.2307 2.50044 18.3206C2.2856 18.4104 2.12544 18.594 2.05903 18.8167L0.0317338 25.7855C-0.0346722 26.012 0.00439048 26.2503 0.137204 26.4417C0.270014 26.6331 0.484864 26.7542 0.715324 26.7699L12.0203 27.5667C12.0359 27.5667 12.0552 27.5706 12.0747 27.5706ZM11.5083 25.9886L1.77779 25.305L3.27389 20.1683L11.852 24.805L11.5083 25.9886Z" fill="#A6FF48"/>
</svg>
