<svg width="52" height="52" viewBox="0 0 52 52" fill="none" xmlns="http://www.w3.org/2000/svg">
<path d="M44.7769 4.33419H40.4424V0H37.5537V4.33419H14.4437V0H11.555V4.33419H7.22315C3.24053 4.33419 0 7.57456 0 11.557V44.7772C0 48.7596 3.24053 52 7.22315 52H44.7769C48.7595 52 52 48.7596 52 44.7772V18.7772V15.8886V11.5544C51.9974 7.57199 48.7569 4.33419 44.7769 4.33419ZM49.1087 44.7746C49.1087 47.1625 47.1649 49.1063 44.7769 49.1063H7.22315C4.83255 49.1063 2.88875 47.1625 2.88875 44.7746V18.7772H49.1087V44.7746ZM49.1087 15.8886H2.88875V11.5544C2.88875 9.16393 4.83255 7.22022 7.22315 7.22022H11.5576V10.1088H14.4437V7.22279H37.5537V10.1114H40.4424V7.22279H44.7769C47.1649 7.22279 49.1087 9.16393 49.1087 11.5544V15.8886Z" fill="#A6FF48"/>
</svg>
