<svg width="90" height="42" viewBox="0 0 90 42" fill="none" xmlns="http://www.w3.org/2000/svg">
<path fill-rule="evenodd" clip-rule="evenodd" d="M17.8753 10.3652L22.2269 19.3652L32.1175 20.6855C32.6292 20.7636 33.055 21.123 33.2152 21.6152C33.3753 22.1073 33.2464 22.6504 32.8753 23.0136L25.6565 29.9238L27.4377 39.7519V39.7558C27.5627 40.494 27.0705 41.1933 26.3361 41.3261C26.0354 41.3808 25.7229 41.33 25.4572 41.1854L16.6564 36.4666L7.85562 41.1854C7.20718 41.5487 6.39082 41.3261 6.01582 40.6854C5.84394 40.3808 5.80098 40.0214 5.89473 39.6854L7.64473 29.9471L0.437734 23.0369C0.0471145 22.6737 -0.0974254 22.119 0.0666445 21.615C0.230705 21.1072 0.676024 20.744 1.20724 20.6854L11.0861 19.3338L15.4259 10.3338C15.7502 9.65407 16.5626 9.36501 17.2462 9.68532C17.5236 9.81813 17.7462 10.0447 17.8752 10.3259L17.8753 10.3652ZM46.2463 0.76357C46.1057 0.49013 45.883 0.27138 45.6057 0.13466C44.9299 -0.18956 44.1174 0.0916908 43.7854 0.76357L39.4456 9.76357L29.5667 11.1034V11.1073C29.2581 11.1502 28.9729 11.2909 28.7542 11.5135C28.2268 12.0448 28.2268 12.9041 28.7542 13.4354L36.0159 20.3456L34.2542 30.0956C34.1174 30.6269 34.3127 31.1894 34.7502 31.5214C35.1877 31.8574 35.7814 31.8925 36.2541 31.6152L45.0158 26.8964L53.8166 31.6152C54.0862 31.7558 54.3948 31.8066 54.6956 31.7558C55.4338 31.6191 55.9222 30.916 55.7972 30.1738L54.016 20.3457L61.2348 13.4355C61.4574 13.2246 61.598 12.9394 61.6371 12.6347C61.684 12.2792 61.5902 11.9199 61.3715 11.6347C61.1527 11.3496 60.8324 11.1621 60.4769 11.1152L50.5863 9.76359L46.2463 0.76357ZM48.4455 11.5916L45.0158 4.48607L41.5861 11.5955C41.3947 11.9939 41.0236 12.2791 40.5861 12.3572L32.715 13.4236L38.4142 18.8924V18.8963C38.7462 19.2088 38.8985 19.6658 38.8165 20.1151L37.4142 27.8846L44.4142 24.1463C44.8166 23.9354 45.2931 23.9354 45.6954 24.1463L52.6954 27.8846L51.3048 20.1737C51.1993 19.7089 51.3478 19.2245 51.6954 18.8964L57.3946 13.4276L49.6134 12.369L49.6173 12.3651C49.1447 12.3143 48.7345 12.0213 48.5275 11.5956L48.4455 11.5916ZM74.6055 10.3611L78.9453 19.3611L88.8359 20.6853C89.3476 20.7634 89.7734 21.1228 89.9375 21.615C90.0976 22.1071 89.9648 22.6502 89.5937 23.0134L82.3828 29.9236L84.1523 39.7517L84.1562 39.7556C84.2226 40.1188 84.1367 40.4938 83.9219 40.7908C83.707 41.0915 83.3789 41.2908 83.0156 41.3455C82.7148 41.4001 82.4023 41.3533 82.1367 41.2048L73.3359 36.486L64.5351 41.2048C63.8945 41.5369 63.1015 41.3103 62.7343 40.6853C62.5702 40.3806 62.5273 40.0212 62.6171 39.6853L64.3788 29.947L57.16 23.0368H57.1561C56.8983 22.7829 56.7538 22.4352 56.7538 22.0759C56.7538 21.7165 56.8983 21.3688 57.1561 21.1149C57.3631 20.8884 57.6483 20.7438 57.9569 20.7048L67.8358 19.3532L72.1874 10.3532V10.3571C72.4139 9.88441 72.8866 9.58754 73.4101 9.58754C73.9335 9.58754 74.4101 9.88442 74.6367 10.3571L74.6055 10.3611ZM76.8047 21.1891V21.1969C77.0117 21.6188 77.4258 21.9078 77.8945 21.9547L85.6757 23.0133L80.0155 28.486C79.6678 28.818 79.5194 29.3063 79.6249 29.7751L81.0155 37.4743L74.0155 33.7438C73.6131 33.525 73.1287 33.525 72.7264 33.7438L65.7264 37.4743L67.1756 29.6852C67.2498 29.2399 67.1052 28.7829 66.7849 28.4664L61.074 22.9976L68.8943 21.939V21.9351C69.3475 21.8687 69.742 21.5835 69.9451 21.1734L73.3748 14.064L76.8045 21.1734L76.8047 21.1891ZM20.0857 21.1891L16.656 14.0836L13.2263 21.193V21.1969C13.0192 21.6031 12.6286 21.8883 12.1755 21.9547L4.35517 23.0133L10.0154 28.486C10.3435 28.7985 10.4919 29.2555 10.4138 29.7048L9.01541 37.4743L16.0154 33.7438C16.4178 33.525 16.9021 33.525 17.3045 33.7438L24.3045 37.4743L22.9139 29.7751C22.8124 29.3102 22.9569 28.822 23.2967 28.486L29.0076 23.0172L21.2264 21.9586V21.9547C20.7381 21.9234 20.3006 21.6344 20.0858 21.1969L20.0857 21.1891Z" fill="#A6FF48"/>
</svg>
