<svg width="111" height="83" viewBox="0 0 111 83" fill="none" xmlns="http://www.w3.org/2000/svg">
<path d="M54.6934 19.6143V76H57.3066V44.1475L81.1533 24.1191L105 43.7158V76H107.5C109.433 76 111 77.567 111 79.5C111 81.433 109.433 83 107.5 83H3.5C1.56701 83 0 81.433 0 79.5C0 77.567 1.567 76 3.5 76H7V20.0479L30.8447 0L54.6934 19.6143ZM3.34668 78.0078C2.59028 78.0846 2 78.7233 2 79.5C2 80.3284 2.67157 81 3.5 81H107.5C108.328 81 109 80.3284 109 79.5C109 78.7233 108.41 78.0846 107.653 78.0078L107.5 78H3.5L3.34668 78.0078ZM17.9873 76H25.3613V54.4316H17.9873V76ZM68.2939 76H75.668V54.4316H68.2939V76ZM9.82324 21.3721V75.1631H15.1641V51.5957H28.1846V75.1631H51.8711V20.958L30.8643 3.68262L9.82324 21.3721ZM60.1309 45.4746V75.1631H65.4707V51.5957H78.4912V75.1631H102.177V45.0635L81.1709 27.8008L60.1309 45.4746ZM47.5615 69.8164H34.541V51.5967H47.5615V69.8164ZM97.8682 69.8164H84.8486V51.5967H97.8682V69.8164ZM37.3652 66.9795H44.7383V54.4336H37.3652V66.9795ZM87.6719 66.9795H95.0449V54.4336H87.6719V66.9795ZM28.1846 45.2266H15.1641V27.0234H28.1846V45.2266ZM47.5615 45.2266H34.541V27.0234H47.5615V45.2266ZM17.9873 42.3906H25.3613V29.8604H17.9873V42.3906ZM37.3652 42.3906H44.7383V29.8604H37.3652V42.3906Z" fill="#A6FF48"/>
</svg>
