<svg width="96" height="78" viewBox="0 0 96 78" fill="none" xmlns="http://www.w3.org/2000/svg">
<path d="M30.7379 43.3909C30.859 42.8713 31.3785 42.5393 31.9098 42.6604L35.7809 43.551C33.0895 39.0901 31.6793 34.0119 31.6793 28.75C31.6793 12.898 44.5773 0 60.4293 0C76.2813 0 89.1793 12.898 89.1793 28.75C89.1793 37.5508 85.2301 45.75 78.3393 51.238C78.1596 51.3786 77.9487 51.4489 77.7299 51.4489C77.4409 51.4489 77.1596 51.32 76.9682 51.0779C76.6401 50.656 76.6987 50.0466 77.1166 49.7067C83.5385 44.5856 87.2256 36.9368 87.2256 28.7378C87.2256 13.9568 75.2056 1.92875 60.4166 1.92875C45.6356 1.92875 33.6156 13.9488 33.6156 28.7378C33.6156 33.6675 34.9437 38.4369 37.4867 42.6087L38.4164 38.5696C38.5375 38.0501 39.0571 37.7181 39.5883 37.8392C40.1079 37.9603 40.4399 38.4798 40.3188 39.0111L38.8774 45.2494C38.7563 45.7689 38.2368 46.1009 37.7055 45.9799L31.4672 44.5384C30.9477 44.4408 30.6195 43.9095 30.7367 43.39L30.7379 43.3909ZM60.4289 28.1918C68.6789 28.1918 75.3899 34.9028 75.3899 43.1529V43.9419C75.3899 45.9224 73.7805 47.52 71.8118 47.52H49.0498C47.0693 47.52 45.4717 45.9106 45.4717 43.9419V43.1529C45.4678 34.9029 52.1789 28.1918 60.4289 28.1918ZM47.4209 43.1529V43.9419C47.4209 44.8403 48.1514 45.5825 49.0615 45.5825H71.8115C72.7099 45.5825 73.4521 44.852 73.4521 43.9419V43.1529C73.4521 35.981 67.6123 30.1409 60.4401 30.1409C53.2487 30.1409 47.4209 35.9807 47.4209 43.1529ZM60.4289 26.6298C56.1672 26.6298 52.7101 23.169 52.7101 18.9111C52.7101 14.6494 56.171 11.1922 60.4289 11.1922C64.6906 11.1922 68.1477 14.6532 68.1477 18.9111C68.1477 23.1611 64.6789 26.6298 60.4289 26.6298ZM60.4289 24.6806C63.6086 24.6806 66.1984 22.0908 66.1984 18.9111C66.1984 15.7315 63.6086 13.1416 60.4289 13.1416C57.2492 13.1416 54.6594 15.7315 54.6594 18.9111C54.6594 22.0908 57.2375 24.6806 60.4289 24.6806ZM91.9879 63.8216L55.7889 76.6106C54.328 77.1302 52.6991 77.5989 50.6795 77.5989L35.9415 77.6028C33.7813 77.6028 31.8712 77.1614 29.9298 76.2122C28.5587 75.5404 27.1095 74.7434 25.711 73.9622C22.7813 72.3333 19.7501 70.6536 17.211 70.052C16.1407 69.802 15.1719 69.6419 14.1719 69.5013V69.6809C14.1719 71.2903 12.8633 72.6028 11.25 72.6028H2.9219C1.3125 72.6028 0 71.2942 0 69.6809V45.5329C0 43.9235 1.3086 42.611 2.9219 42.611H11.2735C12.8829 42.611 14.1954 43.9196 14.1954 45.5329V46.2947C15.297 46.2439 16.3438 46.1853 17.3438 46.1228C24.3633 45.7243 28.9918 45.4626 35.0548 48.9822C35.8556 49.4431 36.5548 49.8923 37.1837 50.283C39.7735 51.9119 41.3321 52.8924 45.2345 52.8924H49.254C54.1446 52.8924 58.6837 55.494 60.324 58.8143L83.183 54.3651C87.7924 53.4354 91.0346 53.6659 93.0619 55.0448C94.2416 55.8456 94.9838 57.0253 95.2533 58.5253C95.6713 60.9433 94.4215 62.9622 91.9879 63.8216ZM12.2379 45.5326C12.2379 44.9936 11.7965 44.5639 11.2691 44.5639H2.92145C2.38239 44.5639 1.9527 45.0053 1.9527 45.5326V69.6806C1.9527 70.2197 2.39411 70.6494 2.92145 70.6494H11.273C11.8121 70.6494 12.2418 70.208 12.2418 69.6806L12.2379 45.5326ZM93.3199 58.8916C93.1402 57.9034 92.6988 57.1808 91.9488 56.6729C90.3902 55.6143 87.5582 55.4814 83.5386 56.2939L60.8976 60.7041C60.9367 60.9659 60.9562 61.2237 60.9562 61.4932C60.9562 63.9737 58.9367 65.9932 56.4562 65.9932H40.7882C40.2491 65.9932 39.8194 65.5518 39.8194 65.0245C39.8194 64.4932 40.2609 64.0557 40.7882 64.0557L56.4602 64.0518C57.8704 64.0518 59.0188 62.9034 59.0188 61.4932C59.0188 58.4229 54.7493 54.8643 49.2493 54.8643H45.2298C40.7689 54.8643 38.8314 53.6455 36.14 51.9541C35.4994 51.5557 34.8392 51.1338 34.0697 50.6846C28.5111 47.4541 24.3509 47.6963 17.4487 48.083C16.4096 48.1416 15.3276 48.2041 14.187 48.2549V67.5439C15.3159 67.704 16.4253 67.872 17.6753 68.165C20.4761 68.8368 23.6245 70.5752 26.6636 72.2666C28.105 73.0673 29.4722 73.8252 30.7925 74.4775C32.4839 75.2978 34.0737 75.6689 35.9409 75.6689H50.6599C52.2888 75.6689 53.6287 75.3173 55.1287 74.79L91.3277 62.001C92.23 61.6728 93.6715 60.8526 93.3199 58.8916Z" fill="#A6FF48"/>
</svg>
