<svg width="98" height="78" viewBox="0 0 98 78" fill="none" xmlns="http://www.w3.org/2000/svg">
<path fill-rule="evenodd" clip-rule="evenodd" d="M62.8031 51.9751H60.142C56.1109 51.9751 52.5236 53.7275 50.2532 56.4144V46.3568C56.9438 45.7218 62.116 40.1076 62.116 33.2964V19.5458C62.125 19.2938 62.055 19.0453 61.9156 18.8346C61.7761 18.6239 61.5743 18.4614 61.3378 18.3698C61.1014 18.2781 60.8422 18.2617 60.596 18.3229C60.3498 18.384 60.1288 18.5197 59.9636 18.7112L55.2501 23.9991L49.8776 18.6574C49.7603 18.5406 49.621 18.448 49.4677 18.3847C49.3143 18.3215 49.1499 18.289 48.9839 18.289C48.8179 18.289 48.6535 18.3215 48.5001 18.3847C48.3468 18.448 48.2075 18.5406 48.0902 18.6574L42.7147 23.9997L37.9917 18.7118C37.8133 18.5203 37.5817 18.3858 37.3263 18.3251C37.0709 18.2645 36.8032 18.2805 36.5569 18.3711C36.3125 18.4596 36.1003 18.6189 35.9479 18.8284C35.7954 19.0379 35.7096 19.288 35.7015 19.5464V33.297C35.7015 40.1082 41.0319 45.7224 47.7225 46.3575V56.3979C47.4931 56.1259 47.2497 55.8553 46.9914 55.601C44.6284 53.2725 41.2861 51.9751 37.8337 51.9751H35.1726C35.0086 51.9777 34.8467 52.0129 34.6965 52.0786C34.5464 52.1442 34.4109 52.239 34.2981 52.3574C34.1853 52.4757 34.0974 52.6153 34.0397 52.7679C33.9819 52.9204 33.9554 53.0829 33.9617 53.2458V55.6128C33.9617 61.7769 39.4785 66.7472 46.3266 66.7472H47.7225L47.7212 74.6588H37.8323C37.4968 74.6588 37.1749 74.7912 36.9376 75.027C36.7003 75.2628 36.567 75.5826 36.567 75.916C36.567 76.2494 36.7003 76.5692 36.9376 76.805C37.1749 77.0407 37.4968 77.1732 37.8323 77.1732H60.1407C60.4763 77.1732 60.7982 77.0407 61.0355 76.805C61.2728 76.5692 61.4061 76.2494 61.4061 75.916C61.4061 75.5826 61.2728 75.2628 61.0355 75.027C60.7982 74.7912 60.4763 74.6588 60.1407 74.6588H50.2519L50.2532 66.7472H51.6491C58.4979 66.7472 64.0141 61.7765 64.0141 55.6123V53.2458C64.0203 53.0829 63.9938 52.9204 63.9361 52.7679C63.8783 52.6153 63.7904 52.4757 63.6776 52.3574C63.5648 52.239 63.4294 52.1442 63.2792 52.0786C63.129 52.0129 62.9671 51.9777 62.8031 51.9751ZM46.3266 64.2328H47.7225V63.1675C47.7225 61.0406 46.8299 58.983 45.2095 57.3862C43.322 55.5267 40.6355 54.4895 37.8441 54.4895H36.4924V55.6128C36.4924 60.3905 40.8737 64.2328 46.3266 64.2328ZM41.3629 40.7942C43.3644 42.7828 46.0782 43.9015 48.9088 43.9047C51.7394 43.9015 54.4531 42.7828 56.4546 40.7942C58.4562 38.8056 59.5821 36.1094 59.5853 33.297V22.8569L56.2207 26.6667C56.1139 26.7941 55.9812 26.8976 55.8312 26.9703C55.6813 27.0431 55.5175 27.0835 55.3507 27.0888C55.1782 27.0936 55.0065 27.0634 54.8461 27.0002C54.6857 26.937 54.5399 26.842 54.4175 26.7211L48.983 21.3242L43.5458 26.7212C43.4219 26.8425 43.2745 26.9376 43.1126 27.0008C42.9506 27.064 42.7775 27.094 42.6036 27.089C42.4283 27.084 42.2558 27.0441 42.0963 26.9716C41.9368 26.8991 41.7936 26.7954 41.6752 26.6669L38.2323 22.8569V33.297C38.2355 36.1094 39.3614 38.8056 41.3629 40.7942ZM51.6491 64.2328C57.102 64.2328 61.4833 60.3897 61.4833 55.6123V54.4895H60.142C54.6893 54.4895 50.2532 58.3901 50.2532 63.1675V64.2328H51.6491Z" fill="#A6FF48"/>
<path fill-rule="evenodd" clip-rule="evenodd" d="M28.8423 52.2473H26.1813C22.1502 52.2473 18.5628 53.9996 16.2925 56.6866L15.0211 58.8226L13.7617 56.6701C13.5324 56.3981 13.289 56.1274 13.0307 55.8732C10.6676 53.5447 7.32531 52.2473 3.87292 52.2473H1.21186C1.04782 52.2499 0.885956 52.2851 0.73578 52.3507C0.585604 52.4164 0.450139 52.5111 0.337337 52.6295C0.224535 52.7479 0.136668 52.8874 0.0788955 53.04C0.0211231 53.1926 -0.00539104 53.3551 0.000908383 53.518V55.885C0.000908383 62.049 5.51774 67.0194 12.3659 67.0194H13.7617L13.7604 74.9309H3.87159C3.536 74.9309 3.21415 75.0634 2.97685 75.2992C2.73954 75.5349 2.60623 75.8547 2.60623 76.1881C2.60623 76.5216 2.73954 76.8413 2.97685 77.0771C3.21415 77.3129 3.536 77.4453 3.87159 77.4453H26.18C26.5156 77.4453 26.8374 77.3129 27.0747 77.0771C27.312 76.8413 27.4453 76.5216 27.4453 76.1881C27.4453 75.8547 27.312 75.5349 27.0747 75.2992C26.8374 75.0634 26.5156 74.9309 26.18 74.9309H16.2911L16.2925 67.0194H17.6883C24.5371 67.0194 30.0533 62.0487 30.0533 55.8845V53.518C30.0596 53.3551 30.0331 53.1926 29.9753 53.04C29.9175 52.8874 29.8297 52.7479 29.7169 52.6295C29.6041 52.5111 29.4686 52.4164 29.3184 52.3507C29.1683 52.2851 29.0064 52.2499 28.8423 52.2473ZM12.3659 64.505H13.7617V63.4396C13.7617 61.3128 12.8692 59.2552 11.2487 57.6584C9.36128 55.7988 6.67475 54.7617 3.88336 54.7617H2.53164V55.885C2.53164 60.6626 6.91296 64.505 12.3659 64.505ZM17.6883 64.505C23.1412 64.505 27.5226 60.6619 27.5226 55.8845V54.7617H26.1813C20.7285 54.7617 16.2925 58.6623 16.2925 63.4396V64.505H17.6883Z" fill="#A6FF48"/>
<path d="M96.7882 33.6885H94.1271C90.096 33.6885 86.5087 35.4409 84.2383 38.1279V28.0703C90.9289 27.4352 96.1011 21.821 96.1011 15.0099V1.25923C96.1101 1.00724 96.0401 0.758701 95.9007 0.548009C95.7613 0.337317 95.5594 0.174894 95.3229 0.0832195C95.0865 -0.00845447 94.8273 -0.0248449 94.5811 0.0363168C94.3349 0.0974786 94.1139 0.233167 93.9487 0.424603L89.2353 5.71254L83.8627 0.370857C83.7454 0.254064 83.6061 0.161401 83.4528 0.0981757C83.2994 0.0349505 83.135 0.00240578 82.969 0.00240578C82.803 0.00240578 82.6386 0.0349505 82.4852 0.0981757C82.3319 0.161401 82.1926 0.254064 82.0753 0.370857L76.6998 5.71317L71.9768 0.425231C71.7984 0.233775 71.5669 0.0992055 71.3115 0.0385573C71.056 -0.022091 70.7883 -0.00609163 70.542 0.0845302C70.2976 0.173093 70.0854 0.332395 69.933 0.541888C69.7805 0.751381 69.6947 1.00146 69.6866 1.25986V15.0105C69.6866 21.8217 75.017 27.4359 81.7076 28.0709V38.1114C81.4783 37.8394 81.2348 37.5687 80.9765 37.3145C78.6135 34.986 75.2712 33.6885 71.8188 33.6885H69.1577C68.9937 33.6912 68.8318 33.7264 68.6816 33.792C68.5315 33.8576 68.396 33.9524 68.2832 34.0708C68.1704 34.1892 68.0825 34.3287 68.0248 34.4813C67.967 34.6339 67.9405 34.7964 67.9468 34.9593V37.3263C67.9468 43.4903 73.4636 48.4606 80.3117 48.4606H81.7076V56.0337C81.4783 55.7618 81.2348 55.4876 80.9765 55.2332C78.6135 52.9047 75.2712 51.603 71.8185 51.603H69.1577C68.9932 51.6065 68.8311 51.6425 68.6808 51.709C68.5305 51.7754 68.395 51.8709 68.2822 51.99C68.1695 52.109 68.0818 52.2492 68.0242 52.4023C67.9666 52.5554 67.9403 52.7184 67.9468 52.8817V55.2495C67.9468 61.4128 73.4636 66.3757 80.3117 66.3757H81.7076V74.2333H71.8188C71.4832 74.2333 71.1613 74.3657 70.924 74.6015C70.6867 74.8372 70.5534 75.157 70.5534 75.4905C70.5534 75.8239 70.6867 76.1437 70.924 76.3794C71.1613 76.6152 71.4832 76.7477 71.8188 76.7477H94.1271C94.4627 76.7477 94.7846 76.6152 95.0219 76.3794C95.2592 76.1437 95.3925 75.8239 95.3925 75.4905C95.3925 75.157 95.2592 74.8372 95.0219 74.6015C94.7846 74.3657 94.4627 74.2333 94.1271 74.2333H84.2383V66.3757H85.6342C92.4823 66.3757 97.9992 61.4128 97.9992 55.2495V52.8817C98.0056 52.7185 97.9792 52.5555 97.9216 52.4025C97.8639 52.2495 97.7762 52.1094 97.6635 51.9904C97.5507 51.8714 97.4153 51.7759 97.265 51.7095C97.1147 51.6431 96.9526 51.6071 96.7882 51.6036H94.1271C90.096 51.6036 86.5087 53.3637 84.2383 56.051V48.4606H85.6342C92.483 48.4606 97.9992 43.49 97.9992 37.3258V34.9593C98.0055 34.7964 97.9789 34.6339 97.9212 34.4813C97.8634 34.3287 97.7755 34.1892 97.6627 34.0708C97.5499 33.9524 97.4145 33.8576 97.2643 33.792C97.1141 33.7264 96.9522 33.6912 96.7882 33.6885ZM81.7076 63.8614H80.3117C74.8588 63.8614 70.4775 60.0269 70.4775 55.2495V54.118H71.8292C74.6206 54.118 77.3071 55.1589 79.1946 57.0186C80.815 58.6154 81.7076 60.6764 81.7076 62.8034V63.8614ZM81.7076 45.9462H80.3117C74.8588 45.9462 70.4775 42.1039 70.4775 37.3263V36.2029H71.8292C74.6206 36.2029 77.3071 37.2401 79.1946 39.0997C80.815 40.6965 81.7076 42.7541 81.7076 44.8809V45.9462ZM94.1271 54.118H95.4684V55.2495C95.4684 60.0269 91.0871 63.8614 85.6342 63.8614H84.2383V62.8034C84.2383 58.0257 88.6744 54.118 94.1271 54.118ZM82.8939 25.6181C80.0633 25.6149 77.3495 24.4963 75.348 22.5077C73.3465 20.519 72.2206 17.8228 72.2174 15.0105V4.57038L75.6603 8.38032C75.7787 8.50889 75.9219 8.6125 76.0814 8.68501C76.2409 8.75752 76.4134 8.79745 76.5887 8.80243C76.7626 8.80744 76.9357 8.77744 77.0977 8.71425C77.2596 8.65105 77.407 8.55596 77.5309 8.4347L82.9681 3.03769L88.4026 8.43454C88.525 8.55546 88.6708 8.65042 88.8312 8.71363C88.9917 8.77684 89.1633 8.807 89.3358 8.80227C89.5026 8.79693 89.6664 8.75655 89.8163 8.68379C89.9663 8.61104 90.099 8.50756 90.2058 8.38017L93.5704 4.57038V15.0105C93.5672 17.8228 92.4413 20.519 90.4397 22.5077C88.4382 24.4963 85.7245 25.6149 82.8939 25.6181ZM95.4684 37.3258C95.4684 42.1031 91.0871 45.9462 85.6342 45.9462H84.2383V44.8809C84.2383 40.1036 88.6744 36.2029 94.1271 36.2029H95.4684V37.3258Z" fill="#A6FF48"/>
</svg>
