<svg width="61" height="58" viewBox="0 0 61 58" fill="none" xmlns="http://www.w3.org/2000/svg">
<path d="M50.7108 20.2329V20.1899C50.7108 9.05977 41.6417 0 30.5 0C19.3583 0 10.2892 9.05977 10.2892 20.1899V20.2272C4.15123 23.7002 0 30.2789 0 37.8101C0 48.9402 9.06916 58 20.2108 58C23.9286 58 27.4512 56.9647 30.4853 55.1665C33.5055 56.9647 37.0251 58 40.7892 58C51.9308 58 61 48.9402 61 37.8101C61 30.2759 56.8488 23.6997 50.7108 20.2329ZM40.7892 55.7973C37.8121 55.7973 35.0044 55.0718 32.5299 53.7869C36.285 50.9018 39.0353 46.7233 40.0256 41.8337C40.1433 41.2401 39.7614 40.6579 39.1643 40.5346C38.5758 40.4084 37.9872 40.7985 37.8638 41.395C36.9222 46.041 34.2034 49.9783 30.4997 52.5538C25.8403 49.2987 22.7828 43.9044 22.7828 37.81C22.7828 33.0235 24.6489 28.5153 28.0308 25.1168C28.4556 24.6837 28.4556 23.9868 28.0308 23.5595C27.6059 23.1351 26.8996 23.1351 26.4719 23.5595C22.6737 27.3767 20.578 32.4357 20.578 37.8099C20.578 44.2999 23.6642 50.0847 28.4411 53.7783C25.9579 55.0631 23.1502 55.7973 20.2105 55.7973C10.28 55.7973 2.20453 47.7302 2.20453 37.8099C2.20453 31.4805 5.49742 25.917 10.4498 22.7079C11.0757 27.6923 13.5302 32.2896 17.4174 35.5846C17.8796 35.9804 18.5772 35.923 18.9763 35.4584C19.3725 34.9967 19.3151 34.2998 18.85 33.9098C15.1609 30.7752 12.9131 26.3272 12.5513 21.5462C14.8739 20.4535 17.4748 19.8369 20.2109 19.8369C28.5877 19.8369 35.7909 25.5125 37.723 33.6402C37.8637 34.2339 38.458 34.601 39.0522 34.4547C39.6465 34.3142 40.0082 33.7206 39.8676 33.1269C37.6943 23.993 29.61 17.6203 20.2109 17.6203C17.4922 17.6203 14.8969 18.1623 12.5227 19.1403C13.0739 9.70461 20.923 2.20277 30.5 2.20277C40.077 2.20277 47.9262 9.70535 48.4774 19.1403C46.1032 18.1624 43.5079 17.6203 40.7892 17.6203C38.7452 17.6203 36.7327 17.9214 34.8063 18.5237C34.2264 18.7073 33.902 19.3238 34.08 19.9032C34.2637 20.4825 34.8723 20.8066 35.4609 20.6287C37.1805 20.0924 38.9748 19.8286 40.7978 19.8286C43.5395 19.8286 46.1347 20.4452 48.4573 21.5379C47.7568 30.8267 39.9739 38.1773 30.4998 38.1773C28.8979 38.1773 27.3103 37.9651 25.7801 37.5521C25.1916 37.3915 24.5887 37.7443 24.428 38.3293C24.2672 38.9172 24.6203 39.5195 25.206 39.6801C26.9256 40.1418 28.7055 40.377 30.497 40.377C40.7861 40.377 49.3041 32.6534 50.5468 22.7053C55.5019 25.9173 58.7951 31.4809 58.7951 37.8103C58.7951 47.7305 50.7197 55.7973 40.7892 55.7973Z" fill="#A6FF48"/>
</svg>
