<svg width="63" height="63" viewBox="0 0 63 63" fill="none" xmlns="http://www.w3.org/2000/svg">
<path d="M0 7.26897C0 6.18002 0.879795 5.30023 1.96875 5.30023H28.3035C29.3925 5.30023 30.2723 6.18002 30.2723 7.26897C30.2723 8.35792 29.3925 9.23771 28.3035 9.23771H1.96875C0.879795 9.23771 0 8.35792 0 7.26897ZM50.4488 9.23771H61.0312C62.1202 9.23771 63 8.35792 63 7.26897C63 6.18002 62.1202 5.30023 61.0312 5.30023H50.4488C49.3599 5.30023 48.4801 6.18002 48.4801 7.26897C48.4801 8.35792 49.3599 9.23771 50.4488 9.23771ZM32.1087 7.26897C32.1087 3.26078 35.3695 0 39.3778 0C43.3861 0 46.6468 3.2607 46.6468 7.26897C46.6468 11.2772 43.3861 14.5379 39.3778 14.5379C35.3695 14.5379 32.1087 11.2772 32.1087 7.26897ZM36.0462 7.26897C36.0462 9.10541 37.5412 10.6005 39.3778 10.6005C41.2142 10.6005 42.7093 9.10549 42.7093 7.26897C42.7093 5.43246 41.2143 3.93748 39.3778 3.93748C37.5413 3.93748 36.0462 5.43246 36.0462 7.26897ZM1.96875 33.4689H7.82578C8.91474 33.4689 9.79453 32.5891 9.79453 31.5002C9.79453 30.4112 8.91474 29.5315 7.82578 29.5315H1.96875C0.879795 29.5315 0 30.4112 0 31.5002C0 32.5891 0.879795 33.4689 1.96875 33.4689ZM61.0312 29.5315H29.9715C28.8825 29.5315 28.0027 30.4112 28.0027 31.5002C28.0027 32.5891 28.8825 33.4689 29.9715 33.4689H61.0312C62.1202 33.4689 63 32.5891 63 31.5002C63 30.4112 62.1202 29.5315 61.0312 29.5315ZM18.9 24.2312C22.9082 24.2312 26.169 27.4919 26.169 31.5002C26.169 35.5085 22.9083 38.7692 18.9 38.7692C14.8917 38.7692 11.631 35.5085 11.631 31.5002C11.631 27.4919 14.8917 24.2312 18.9 24.2312ZM18.9 28.1687C17.0636 28.1687 15.5685 29.6637 15.5685 31.5002C15.5685 33.3367 17.0635 34.8317 18.9 34.8317C20.7365 34.8317 22.2315 33.3367 22.2315 31.5002C22.2315 29.6637 20.7365 28.1687 18.9 28.1687ZM32.241 53.7623H1.96875C0.879795 53.7623 0 54.6421 0 55.731C0 56.82 0.879795 57.6998 1.96875 57.6998H32.241C33.33 57.6998 34.2098 56.82 34.2098 55.731C34.2098 54.6421 33.33 53.7623 32.241 53.7623ZM61.0312 53.7623H54.3867C53.2978 53.7623 52.418 54.6421 52.418 55.731C52.418 56.82 53.2978 57.6998 54.3867 57.6998H61.0312C62.1202 57.6998 63 56.82 63 55.731C63 54.6421 62.1202 53.7623 61.0312 53.7623ZM50.5811 55.731C50.5811 59.7392 47.3204 63 43.3121 63C39.3038 63 36.0431 59.7393 36.0431 55.731C36.0431 51.7228 39.3038 48.4621 43.3121 48.4621C47.3204 48.4621 50.5811 51.7228 50.5811 55.731ZM46.6436 55.731C46.6436 53.8946 45.1486 52.3995 43.3121 52.3995C41.4756 52.3995 39.9806 53.8945 39.9806 55.731C39.9806 57.5675 41.4756 59.0625 43.3121 59.0625C45.1486 59.0625 46.6436 57.5675 46.6436 55.731Z" fill="#A6FF48"/>
</svg>
