<svg width="90" height="67" viewBox="0 0 90 67" fill="none" xmlns="http://www.w3.org/2000/svg">
<path d="M89.8565 34.902L75.2005 9.519C74.9036 9.00338 74.2473 8.82759 73.7317 9.12447L64.677 14.3511C64.4309 14.4956 64.2512 14.73 64.177 15.0073C64.1027 15.2808 64.1418 15.5737 64.2824 15.8237L65.091 17.2221L60.6808 19.7494C57.9035 20.7572 55.8136 20.3275 52.6613 19.6791C51.1535 19.3666 49.4425 19.0151 47.3527 18.7611H47.3566C44.3644 18.3783 41.3566 19.3158 39.1105 21.3236L31.2824 20.14C29.6183 19.9057 28.0324 19.2768 26.6574 18.3041L26.216 18.0034L27.1848 16.5972C27.3488 16.3628 27.4113 16.0698 27.3567 15.7886C27.3059 15.5073 27.1457 15.2573 26.9074 15.0972L18.2941 9.17527C18.0598 9.01121 17.7668 8.94871 17.4855 8.99949C17.2043 9.05417 16.9543 9.21433 16.7941 9.45261L0.189132 33.6006C0.0289722 33.835 -0.0335275 34.1279 0.0172525 34.4092C0.0680325 34.6904 0.232092 34.9365 0.466472 35.1006L9.07977 41.0225C9.31805 41.1866 9.60711 41.2491 9.88836 41.1944C10.1696 41.1436 10.4196 40.9834 10.5798 40.7452L11.361 39.6085C12.7672 40.6593 14.0563 41.6476 15.2594 42.6163L14.2594 44.0304H14.2633C13.275 45.4288 13.1461 47.2648 13.9313 48.7921C14.7165 50.3194 16.2868 51.2804 18.0016 51.2882C18.0641 51.2882 18.1266 51.2882 18.1891 51.2804C17.7985 53.0734 18.5211 54.9288 20.025 55.9874C20.8023 56.5303 21.7281 56.8233 22.6773 56.8194C22.8843 56.8194 23.0914 56.8077 23.2945 56.7803C23.2554 57.1788 23.2711 57.585 23.3375 57.9795C23.7085 60.1904 25.6227 61.8076 27.8648 61.8037C29.0093 61.8037 30.1148 61.3819 30.9625 60.6123C31.5445 62.085 32.8375 63.1514 34.3922 63.4443C35.9469 63.7373 37.5406 63.2099 38.6149 62.0537L43.9157 65.8193C44.8805 66.5146 46.0407 66.8974 47.236 66.9052C48.7008 66.9404 50.0915 66.2607 50.9665 65.081C51.5719 64.2099 51.8415 63.1474 51.7125 62.0927C52.2047 62.2333 52.7125 62.3076 53.2242 62.3076C54.693 62.3466 56.0836 61.6669 56.9547 60.4873C57.5797 59.5927 57.8415 58.499 57.6969 57.4248C58.1383 57.538 58.5954 57.5966 59.0524 57.5966C60.5172 57.6357 61.9118 56.956 62.7829 55.7763C63.3415 54.999 63.6423 54.0654 63.6423 53.1044C64.2829 53.3584 64.9665 53.4873 65.654 53.4912C65.9353 53.4912 66.2165 53.4677 66.4978 53.4208C67.6658 53.2568 68.7126 52.6162 69.3923 51.6513C70.072 50.6865 70.3259 49.4834 70.0915 48.3311C69.8923 47.2607 69.3805 46.2763 68.6227 45.5029C69.3063 45.0772 69.9118 44.6514 70.5016 44.2295C71.4235 43.5303 72.4157 42.9209 73.4547 42.4092C73.4859 42.3936 73.5133 42.3819 73.5406 42.3624L78.1031 39.753L78.943 41.2061H78.9391C79.0836 41.4522 79.318 41.6319 79.5953 41.7061C79.6852 41.7295 79.7789 41.7412 79.8727 41.7412C80.0602 41.7412 80.2477 41.6944 80.4117 41.5967L89.4664 36.3701H89.4625C89.9781 36.0732 90.1534 35.4177 89.8565 34.902ZM9.41547 38.6364L2.57567 33.9372L17.9627 11.5542L24.8025 16.2534L9.41547 38.6364ZM16.5913 48.6834C15.4936 47.8982 15.2358 46.3748 16.0131 45.2732L19.8295 39.9021H19.8256C20.2006 39.3708 20.7749 39.0154 21.4154 38.9099C21.5522 38.8865 21.6928 38.8748 21.8334 38.8748C22.7436 38.8787 23.5795 39.3904 23.9936 40.2029C24.4116 41.0154 24.3452 41.992 23.8178 42.7341L20.0014 48.1052C19.2163 49.2068 17.6929 49.4647 16.5913 48.6834ZM21.2593 54.2264C20.7319 53.8553 20.3765 53.2928 20.271 52.66C20.1616 52.0272 20.314 51.3788 20.689 50.8592L26.9898 42.1287V42.1248C27.7866 41.0232 29.3257 40.7615 30.4429 41.5428C31.4507 42.2498 31.7593 43.6092 31.1538 44.6834L29.5405 46.9529L24.7124 53.6443C23.9116 54.7459 22.3765 55.0038 21.2593 54.2264ZM26.4507 59.203C25.353 58.4218 25.0952 56.9022 25.8725 55.8046L31.2709 48.2265L32.7514 46.1718C32.8257 46.0702 32.896 45.9609 32.9585 45.8554L33.4116 45.2226L33.4155 45.2187C34.2007 44.1171 35.7319 43.8593 36.8374 44.6406C37.9312 45.4218 38.189 46.9414 37.4116 48.0429L35.7827 50.3281C35.6069 50.5038 35.4468 50.6953 35.3022 50.8984L31.4859 56.2695C31.3569 56.4492 31.2437 56.6406 31.1421 56.8398L29.8726 58.625C29.0835 59.7266 27.5562 59.9843 26.4507 59.203ZM35.6499 61.3358V61.3397C34.7592 61.496 33.8569 61.1483 33.3022 60.4335C32.7475 59.7225 32.6342 58.7616 33.0014 57.9374L37.4155 51.7421V51.746C37.7631 51.4335 38.1889 51.2303 38.646 51.1522C38.7827 51.1288 38.9233 51.1171 39.064 51.1171C39.5679 51.1171 40.06 51.2733 40.4702 51.5663C41.5718 52.3475 41.8296 53.8749 41.0483 54.9765L37.5171 59.9531L37.2358 60.3476C36.8608 60.8789 36.2866 61.2343 35.646 61.3398L35.6499 61.3358ZM67.6339 50.4138V50.4216C67.2745 50.9021 66.7393 51.2185 66.1456 51.3005C65.2393 51.4294 64.3214 51.195 63.587 50.6521L54.2432 43.9607C53.7627 43.6287 53.1026 43.7458 52.7627 44.2224C52.4189 44.699 52.5244 45.3591 52.9892 45.7107L60.1962 50.8709C60.8329 51.2889 61.286 51.9334 61.454 52.6795C61.5712 53.3279 61.4189 53.9959 61.0321 54.5272C60.2314 55.6444 58.3837 55.7499 56.9813 54.7538L55.3329 53.5819L50.661 50.2694C50.4267 50.1053 50.1415 50.0389 49.8603 50.0858C49.579 50.1366 49.3251 50.2928 49.161 50.5233C48.8173 51.0077 48.9306 51.6795 49.415 52.0233L54.083 55.3397C55.4814 56.3397 55.9932 58.1209 55.2002 59.2381C54.4033 60.3592 52.5518 60.4608 51.1494 59.4685L49.3408 58.1833L46.9228 56.4645C46.4384 56.1364 45.7822 56.2536 45.4423 56.7302C45.1024 57.2106 45.2079 57.8708 45.6766 58.2185L48.0946 59.9373C49.493 60.9373 50.0048 62.7185 49.2118 63.8357C48.415 64.9529 46.5634 65.0584 45.161 64.0622L39.8915 60.32L42.8017 56.2184V56.2223C44.2744 54.152 43.7861 51.2809 41.7158 49.8082C41.0283 49.316 40.2158 49.027 39.3681 48.9723C40.5869 46.9176 40.0283 44.2692 38.079 42.8825C36.7352 41.9333 34.9892 41.7731 33.4931 42.4606C33.2392 41.3747 32.5908 40.4176 31.6767 39.7809C30.0165 38.6286 27.8017 38.6754 26.1923 39.8942C25.8876 38.9567 25.29 38.1403 24.4853 37.57C22.415 36.1012 19.5439 36.5856 18.0712 38.652L16.5087 40.8512C15.2899 39.8785 13.9931 38.8824 12.579 37.8278L25.001 19.7658L25.4346 20.0666C27.0752 21.2268 28.9698 21.9807 30.9619 22.2658L37.1689 23.2072C35.872 24.6955 34.665 26.2619 33.5556 27.8908C32.3603 29.6799 31.0283 31.3674 29.5634 32.9416C28.665 33.8517 28.8251 35.3127 29.9775 36.5822C31.0322 37.9338 32.6142 38.7775 34.3252 38.9025H34.3955C37.0361 38.9025 39.1689 36.6837 41.2314 34.5392C42.8798 32.8244 44.5908 31.0509 45.9853 31.1876V31.1915C46.8837 31.6095 47.6884 32.1993 48.3564 32.9298C49.4658 34.0431 50.7548 34.965 52.1728 35.6486L66.4848 46.5006L66.5239 46.5279C67.2739 47.0318 67.7934 47.8131 67.9692 48.7037C68.0903 49.2975 67.9692 49.9185 67.6293 50.4225L67.6339 50.4138ZM72.5206 40.4685V40.4763C71.3722 41.0388 70.2823 41.7068 69.2589 42.4763C68.4776 43.0466 67.6691 43.5779 66.8292 44.0622L58.1534 37.4841H58.1573C59.6104 37.7263 61.1026 37.6521 62.5245 37.2693C62.8018 37.1872 63.0323 36.9958 63.1651 36.738C63.2979 36.4841 63.3213 36.1833 63.2315 35.9099C63.1456 35.6326 62.9463 35.406 62.6885 35.2771C62.4307 35.1482 62.1338 35.1326 61.8604 35.2263C59.8995 35.863 56.2666 35.2615 53.2471 33.7771C53.2159 33.7576 53.1807 33.742 53.1455 33.7263C51.9463 33.1482 50.8525 32.3747 49.9111 31.4372C49.8877 31.4138 47.747 29.1989 46.2041 29.0466C43.7588 28.8084 41.6885 30.9607 39.6846 33.0466C37.9346 34.8669 36.1221 36.7458 34.3955 36.7458H34.3604C33.2471 36.6208 32.2354 36.0349 31.5713 35.1325C31.3721 34.9255 31.2236 34.6755 31.1416 34.4021C32.665 32.7576 34.0596 30.9959 35.3096 29.1326C36.6924 27.0115 38.3057 25.0506 40.1143 23.2771L40.126 23.2653C41.9658 21.4528 44.5322 20.5778 47.0987 20.8903C49.0987 21.1364 50.7628 21.4802 52.2354 21.781C55.5245 22.4567 58.1221 22.9919 61.5166 21.7341H61.5127C61.5713 21.7106 61.6221 21.6872 61.6768 21.656L66.1729 19.0779L77.0249 37.8899L72.5206 40.4685ZM80.2706 39.1912L66.6846 15.6752L73.876 11.5229L87.454 35.0539L80.2706 39.1912ZM43.9266 11.4022V1.0742C43.9266 0.48045 44.407 0 45.0008 0C45.5945 0 46.075 0.48047 46.075 1.0742V11.4022C46.075 11.9959 45.5945 12.4803 45.0008 12.4803C44.407 12.4803 43.9266 11.9959 43.9266 11.4022ZM52.7274 13.0233L57.8915 4.0819H57.8876C58.0282 3.8319 58.2665 3.65221 58.5399 3.57799C58.8172 3.50377 59.1102 3.54283 59.3563 3.68346C59.8719 3.98034 60.0516 4.63658 59.7547 5.15226L54.5906 14.0937V14.0976C54.286 14.5937 53.6414 14.7616 53.1336 14.4687C52.6297 14.1757 52.4501 13.5312 52.7274 13.0195L52.7274 13.0233ZM30.2474 5.1522C30.095 4.90611 30.0521 4.60923 30.1224 4.32798C30.1966 4.04673 30.3763 3.80454 30.6263 3.66001C30.8802 3.51548 31.1771 3.48032 31.4583 3.55845C31.7356 3.63657 31.97 3.82407 32.1106 4.07798L37.2747 13.0194C37.4232 13.2655 37.4701 13.5663 37.3958 13.8475C37.3255 14.1248 37.1419 14.367 36.8919 14.5116C36.6419 14.6561 36.3411 14.6951 36.0638 14.617C35.7865 14.5389 35.5482 14.3514 35.4115 14.0975L30.2474 5.1522Z" fill="#A6FF48"/>
</svg>
