<svg width="65" height="53" viewBox="0 0 65 53" fill="none" xmlns="http://www.w3.org/2000/svg">
<path d="M55.0967 39.3867C55.5726 38.9684 56.0455 38.5297 56.5127 38.062C57.5573 37.0161 66.686 27.4289 64.7248 13.8617H64.7219C64.6494 13.3707 64.2664 12.9872 63.776 12.9146C60.7379 12.5602 57.662 12.6822 54.6591 13.272C54.1106 9.66078 52.8281 6.20361 50.8955 3.10961C50.6315 2.68836 50.1236 2.49081 49.6449 2.62445C46.1164 3.73424 42.82 5.47733 39.9181 7.76959C38.1103 4.89052 35.8295 2.33975 33.1686 0.224425C32.7711 -0.0748083 32.2227 -0.0748083 31.8251 0.224425C29.0975 2.26389 26.7848 4.80886 25.0147 7.72273C22.1304 5.45085 18.8543 3.72517 15.3518 2.62408C14.873 2.49043 14.3652 2.68799 14.1012 3.10924C12.1686 6.20331 10.8889 9.66048 10.3376 13.2686C7.33718 12.6818 4.26136 12.5597 1.22067 12.9142C0.73318 12.9839 0.347235 13.3703 0.277631 13.8613C-1.69262 27.4284 7.43331 37.0159 8.48087 38.0616C8.94514 38.5264 9.41521 38.968 9.89398 39.3863C5.21346 40.8186 2.84565 42.6546 2.84565 44.8539C2.84565 50.1995 17.7605 53 32.4985 53C47.2366 52.9971 62.1544 50.2052 62.1544 44.8539C62.1544 42.6547 59.7801 40.819 55.0967 39.3867ZM62.612 15.0414C63.9265 27.072 55.8684 35.532 54.9251 36.4758C47.9841 43.4221 39.5519 44.308 35.2887 44.247C40.9355 38.9217 44.2348 31.5656 44.4525 23.8003C44.4786 22.554 44.4263 21.3076 44.29 20.0672C47.1888 17.9754 50.4793 16.4909 53.964 15.7035C56.7961 15.047 59.7129 14.8235 62.612 15.0414ZM49.4436 5.04193C50.9931 7.73505 52.0204 10.6984 52.4672 13.7748C49.4262 14.5708 46.5332 15.8637 43.9097 17.5981C43.3525 14.8468 42.392 12.1944 41.0573 9.72491C43.5731 7.70873 46.4084 6.12562 49.4436 5.04193ZM32.483 2.54923C34.9088 4.63518 36.972 7.11329 38.5883 9.87908C38.6289 9.98948 38.6899 10.0912 38.7653 10.1812C40.428 13.0894 41.519 16.2879 41.9775 19.6088V19.6349C42.1632 20.9974 42.2416 22.3745 42.2096 23.7516C41.963 34.8295 34.8683 41.7321 32.4888 43.7394H32.4917C30.356 41.915 28.5018 39.7825 26.99 37.4119C26.9842 37.4032 26.9784 37.3916 26.9726 37.3828C24.2334 33.1413 22.7738 28.1963 22.7767 23.1471C22.7767 21.8107 23.0556 10.1227 32.483 2.54923ZM15.5543 5.04192C18.5779 6.12264 21.4013 7.70017 23.9083 9.70765C22.6461 12.2235 21.7233 14.8964 21.1662 17.6567C18.5198 15.8932 15.6036 14.5801 12.5277 13.7753C12.9774 10.6987 14.0048 7.7349 15.5543 5.04192ZM2.38367 15.0413C5.28537 14.8263 8.19874 15.05 11.0311 15.7037C14.5394 16.4939 17.8473 17.993 20.755 20.108C20.6215 21.1161 20.5489 22.1301 20.5373 23.1468C20.5373 28.5912 22.1014 33.922 25.0466 38.5034C25.0814 38.576 25.125 38.6429 25.1743 38.7068C26.4743 40.7201 28.0006 42.5794 29.7213 44.247C25.4674 44.3138 17.0231 43.4394 10.0679 36.4757C9.12195 35.5316 1.06661 27.0712 2.38367 15.0413ZM32.4979 50.7576C15.7668 50.7576 5.08837 47.2626 5.08837 44.8571C5.08837 44.125 6.58565 42.5329 12.0699 41.1123V41.1094C17.1363 44.645 23.1717 46.5246 29.347 46.4898C30.4004 46.4956 31.4536 46.4346 32.4983 46.3068C33.54 46.4346 34.5876 46.4956 35.638 46.4898C41.8158 46.5247 47.8541 44.645 52.924 41.1094C58.4141 42.5358 59.9143 44.125 59.9143 44.8571C59.9085 47.2626 49.233 50.7576 32.4989 50.7576L32.4979 50.7576Z" fill="#A6FF48"/>
</svg>
