<svg width="16" height="16" viewBox="0 0 16 16" fill="none" xmlns="http://www.w3.org/2000/svg">
<rect width="16" height="16" fill="#053D3D"/>
<path d="M10.8005 12.0115C11.4487 11.3633 11.7739 10.5138 11.7752 9.66382C11.7752 9.61309 11.7332 9.57234 11.6828 9.57442C9.77089 9.64178 8.43069 10.982 8.36333 12.8939C8.36167 12.9446 8.402 12.9862 8.45273 12.9862C9.30267 12.9846 10.1518 12.6598 10.8005 12.0115Z" fill="#A6FF48"/>
<path d="M7.02385 11.7395C7.67212 12.3878 7.99729 13.2373 7.99854 14.0872C7.99854 14.138 7.95654 14.1787 7.90623 14.1766C5.99428 14.1093 4.65408 12.7691 4.58672 10.8571C4.58506 10.8064 4.62539 10.7648 4.67612 10.7648C5.52606 10.7665 6.37517 11.0913 7.02385 11.7395Z" fill="#A6FF48"/>
<path d="M11.8945 5.88002C11.9519 5.8821 11.9997 5.83595 11.9997 5.77815C11.9981 4.81178 11.6284 3.84583 10.8911 3.10858C10.1539 2.37133 9.18794 2.00166 8.22157 2C8.16419 2 8.11762 2.0474 8.1197 2.1052C8.19662 4.27953 9.7202 5.8031 11.8945 5.88002Z" fill="#A6FF48"/>
<path d="M10.8912 8.89133C11.6284 8.15408 11.9981 7.18812 11.9997 6.22176C11.9997 6.16437 11.9523 6.1178 11.8945 6.11988C9.7202 6.19681 8.19662 7.72037 8.1197 9.8947C8.11762 9.95209 8.16377 9.9999 8.22157 9.9999C9.18794 9.99824 10.1539 9.62858 10.8912 8.89133Z" fill="#A6FF48"/>
<path d="M4.1052 6.11988C4.04782 6.1178 4 6.16396 4 6.22176C4.00166 7.18812 4.37133 8.15408 5.10858 8.89133C5.84583 9.62858 6.81179 9.99824 7.77816 9.9999C7.83554 9.9999 7.88211 9.9525 7.88004 9.8947C7.80311 7.72037 6.27954 6.19681 4.1052 6.11988Z" fill="#A6FF48"/>
<path d="M7.88003 2.10526C7.88211 2.04788 7.83596 2.00006 7.77816 2.00006C6.81179 2.00172 5.84583 2.37139 5.10858 3.10864C4.37133 3.84589 4.00166 4.81184 4 5.77821C4 5.83559 4.0474 5.88217 4.1052 5.88009C6.27954 5.80316 7.80311 4.27959 7.88003 2.10526Z" fill="#A6FF48"/>
</svg>
