<svg id="Layer_1" data-name="Layer 1" xmlns="http://www.w3.org/2000/svg" viewBox="0 0 547.42 147.28"><defs><style>.cls-1{fill:#23438c;}</style></defs><path class="cls-1" d="M198.21,74q-11.57,12.44-11.58,30.75,0,17.9,11,29.83,11.88,12.93,32.1,12.93a41.66,41.66,0,0,0,22.85-6.74,42.13,42.13,0,0,0,10.35-9.25l-2.33-2.33a53.52,53.52,0,0,1-10.35,8,35.73,35.73,0,0,1-17.95,4.66,28.36,28.36,0,0,1-22.27-10q-8.79-10-8.78-26.8,0-18.26,8.36-28.67a26.37,26.37,0,0,1,21.53-10.41q13,0,20.76,9.68a40.45,40.45,0,0,1,6.55,13.53h2.88L260.14,61H257.5A5.06,5.06,0,0,1,255.3,64a6.34,6.34,0,0,1-3.37,1,67.73,67.73,0,0,1-8-2,51.24,51.24,0,0,0-14-2q-19.55,0-31.73,13" transform="translate(-0.88 -0.25)"/><path class="cls-1" d="M306.24,101A43.85,43.85,0,0,1,311,121q0,10.25-3.7,16.54t-10.57,6.31q-8.76,0-13.69-9.43a43.23,43.23,0,0,1-4.93-20.34q0-13.65,6.13-19.23a12.15,12.15,0,0,1,8.39-3.19q8.94,0,13.66,9.38m-31.49,37.67a26.35,26.35,0,0,0,19.91,8.63,25.09,25.09,0,0,0,20-9,31.56,31.56,0,0,0,7.72-21.19q0-13.23-8-21.2t-20.09-8q-12.19,0-19.94,8.42A29.36,29.36,0,0,0,266.61,117q0,13,8.14,21.69" transform="translate(-0.88 -0.25)"/><path class="cls-1" d="M320.47,90.44q4.41.44,5.76,1.47c1.39,1.1,2.09,3.29,2.09,6.55v31.79q0,8.82,4.77,12.56a15.75,15.75,0,0,0,10.05,3.8,18.81,18.81,0,0,0,11-3.68,41.27,41.27,0,0,0,7.6-7.35v9.87a3.1,3.1,0,0,0,.06.64.33.33,0,0,0,.37.27q5.38-2.07,7-2.63,3.74-1.23,5.33-1.69t5-1.37V139q-4.84.18-6.34-1.38t-1.5-5.73V88.72H351.83v2q5.52.3,7.36,1.77T361,98.71v33.56a23.76,23.76,0,0,1-4.59,4.23,14.17,14.17,0,0,1-8.15,2.76q-6.06,0-8.33-4.66a16,16,0,0,1-1.16-6.67V88.72H320.47Z" transform="translate(-0.88 -0.25)"/><path class="cls-1" d="M385.16,145.93a3.58,3.58,0,0,1,.86-1.25,1.77,1.77,0,0,1,1.28-.52,38.5,38.5,0,0,1,5.52,1.22,33,33,0,0,0,8.33,1.23q8.76,0,14.18-4.6a14.79,14.79,0,0,0,5.42-11.82q0-9.43-13.05-16.54l-8.08-4.35q-8.46-4.41-8.46-10a8.71,8.71,0,0,1,9.19-8.82,12.15,12.15,0,0,1,11,6.12,28.2,28.2,0,0,1,3.31,9.25h1.9l-.43-17.09h-1.47a2.53,2.53,0,0,1-.85,1,3.07,3.07,0,0,1-1.59.31,33,33,0,0,1-4.39-1.23,24.08,24.08,0,0,0-7.13-1.22A17.7,17.7,0,0,0,388.35,92a14.48,14.48,0,0,0-4.9,11.27,14.31,14.31,0,0,0,3.55,9.68q3.56,4.11,11.08,8.15l6.86,3.92a15.78,15.78,0,0,1,5.4,4.65,9.07,9.07,0,0,1,1.53,5,8.66,8.66,0,0,1-2.67,6.58,10,10,0,0,1-7.26,2.55,13.9,13.9,0,0,1-12.55-6.86,32,32,0,0,1-3.8-10.72h-2v19.78Z" transform="translate(-0.88 -0.25)"/><path class="cls-1" d="M429.63,66.37a6.33,6.33,0,0,1,1.84-4.54A6.07,6.07,0,0,1,436,59.94a6.17,6.17,0,0,1,4.51,1.86,6.24,6.24,0,0,1,1.86,4.57A6.37,6.37,0,0,1,436,72.74a6.09,6.09,0,0,1-4.53-1.87,6.22,6.22,0,0,1-1.84-4.5" transform="translate(-0.88 -0.25)"/><path class="cls-1" d="M421.79,145.44v-1.71q6.56-.61,8.27-2.24c1.14-1.08,1.72-4,1.72-8.79V103.48a18.85,18.85,0,0,0-.55-5.51,3.71,3.71,0,0,0-3.86-2.51,7.2,7.2,0,0,0-1.32.12c-.43.09-1.67.41-3.7,1V94.66l2.63-.85q10.71-3.5,14.94-5.27a8.11,8.11,0,0,1,2.21-.74,3.46,3.46,0,0,1,.12.92v44q0,7,1.69,8.76c1.12,1.19,3.66,1.94,7.62,2.27v1.71Z" transform="translate(-0.88 -0.25)"/><path class="cls-1" d="M476,145.44v-1.71c-2.81-.08-4.88-.62-6.18-1.63s-2-3-2-5.91v-34.3a42.68,42.68,0,0,1,5.38-4.65,13.37,13.37,0,0,1,7.36-2.45q5.26,0,7.22,3.46a17.51,17.51,0,0,1,2,8.73v26.15c0,4.17-.59,6.87-1.77,8.12s-3.27,2.07-6.25,2.48v1.71h26.15v-1.71c-2.77,0-4.75-.72-5.94-2s-1.77-3.43-1.77-6.37V106.73q0-11.94-6.62-16.6a13,13,0,0,0-7.59-2.39,18.38,18.38,0,0,0-9.92,3A63,63,0,0,0,467.19,98V89a3.22,3.22,0,0,0-.09-.86c-.06-.2-.23-.31-.52-.31l-5.76,1.9q-9.36,3.08-11.88,3.8v2.15c.57-.09,1.05-.15,1.44-.19a11.13,11.13,0,0,1,1.13-.06q3.62,0,4.78,2.33a14.44,14.44,0,0,1,.74,5.51V134.3q0,5.63-1.75,7.26c-1.16,1.08-3.2,1.8-6.1,2.17v1.71Z" transform="translate(-0.88 -0.25)"/><path class="cls-1" d="M512.71,145.93a3.45,3.45,0,0,1,.86-1.25,1.8,1.8,0,0,1,1.29-.52,38.5,38.5,0,0,1,5.51,1.22,33,33,0,0,0,8.33,1.23q8.76,0,14.18-4.6a14.79,14.79,0,0,0,5.42-11.82q0-9.43-13-16.54l-8.09-4.35q-8.45-4.41-8.45-10a8.7,8.7,0,0,1,9.19-8.82,12.17,12.17,0,0,1,11,6.12,28.44,28.44,0,0,1,3.3,9.25h1.9l-.43-17.09h-1.47a2.53,2.53,0,0,1-.85,1,3.09,3.09,0,0,1-1.6.31,33.59,33.59,0,0,1-4.38-1.23,24.08,24.08,0,0,0-7.13-1.22A17.7,17.7,0,0,0,515.9,92a14.48,14.48,0,0,0-4.9,11.27,14.31,14.31,0,0,0,3.55,9.68q3.56,4.11,11.09,8.15L532.5,125a15.83,15.83,0,0,1,5.39,4.65,9.07,9.07,0,0,1,1.53,5,8.66,8.66,0,0,1-2.67,6.58,10,10,0,0,1-7.26,2.55,13.9,13.9,0,0,1-12.55-6.86,32,32,0,0,1-3.8-10.72h-2v19.78Z" transform="translate(-0.88 -0.25)"/><path class="cls-1" d="M142.39,119.71c.57-.78.36-2.94-3-2.73l-.28,0H72.28c-5.17,0-5.56-2-6.22-2.61l-.19-.28L46.06,79.79l-.16-.32c-2.5-4.23,0-8.07,4.71-8.1h26.2c2.67.12,4.09-1,4.53-1.65l.17-.24L95.45,45.33l.21-.36c2.22-4-2.55-3.4-2.82-3.41l-.33,0H62.73l-.41,0c-.29,0-4.59-.32-6,2.17l-.28.39-.11.19L23.48,100.52l-.15.32c-.3.69-2.56,2.85-.84,6.24l.18.38L43.19,143l.1.2c1.52,2.16,3.63,3.5,7.92,3.57l.48,0H122.4c1.1-.13,4.24-.17,6.16-3.08l.13-.23L142.24,120Z" transform="translate(-0.88 -0.25)"/><path class="cls-1" d="M95.52.26c-1-.1-2.73,1.16-.86,4l.16.23L128,62l.2.37c2.62,4.46,1.08,5.8.85,6.69l-.15.31-19.81,34.31-.19.3c-2.42,4.27-7,4-9.37,0l-.19-.31-12.69-22-.23-.41c-1.23-2.37-2.91-3-3.7-3.1l-.29,0H54.17c-4.55.06-1.68,3.91-1.55,4.15l.18.28,14.88,25.78.2.37c.14.25,2,4.13,4.87,4.1l.48,0h65.13l.35,0c.75-.09,3.75.78,5.83-2.4l.23-.35,20.52-35.53.12-.18c1.11-2.41,1.21-4.9-.87-8.65l-.22-.43L129.13,4.33,129,4c-.66-.88-2.27-3.59-5.74-3.79H95.52Z" transform="translate(-0.88 -0.25)"/><path class="cls-1" d="M15.41,100.25c.4.88,2.37,1.78,3.87-1.24l.12-.25L52.61,41.24l.22-.35c2.55-4.5,4.48-3.84,5.37-4.08l.34,0h40c4.91,0,7,4,4.66,8.14l-.17.32-12.68,22-.24.4c-1.44,2.26-1.19,4-.84,4.76l.13.26L103.3,96.78l.21.36c2.31,3.91,4.22-.51,4.36-.74l.16-.29,14.88-25.78.22-.35c.14-.26,2.57-3.82,1.12-6.27l-.21-.44-.09-.2L91.49,6.86l-.2-.29c-.45-.61-1.2-3.64-5-3.86l-.41,0H44.63c-2.63.24-4.84,1.39-7.05,5.07l-.26.41L2.14,69.1,2,69.4c-.43,1-2,3.76-.41,6.87l.13.23L15.24,100Z" transform="translate(-0.88 -0.25)"/></svg>